<svg xmlns="http://www.w3.org/2000/svg" xmlns:xlink="http://www.w3.org/1999/xlink" id="svg" version="1.1" width="400" height="391.5966386554622" viewBox="0, 0, 400,391.5966386554622"><g id="svgg"><path id="path0" d="M0.000 195.886 L 0.000 391.773 200.000 391.773 L 400.000 391.773 400.000 195.886 L 400.000 0.000 200.000 0.000 L 0.000 0.000 0.000 195.886 M294.583 11.392 C 297.181 13.989,295.736 20.000,292.521 19.968 C 290.248 19.945,289.128 18.398,289.128 15.279 C 289.128 10.880,292.015 8.823,294.583 11.392 M287.830 21.224 C 290.452 23.688,288.414 26.641,284.090 26.641 C 279.573 26.641,277.632 23.871,280.371 21.333 C 281.828 19.982,286.436 19.915,287.830 21.224 M304.546 21.333 C 307.249 23.838,305.344 26.641,300.936 26.641 C 297.427 26.641,296.180 25.848,296.180 23.615 C 296.180 20.506,301.955 18.931,304.546 21.333 M294.623 28.278 C 297.159 30.814,295.650 36.847,292.488 36.814 C 290.249 36.791,289.128 35.228,289.128 32.125 C 289.128 27.692,292.016 25.670,294.623 28.278 M80.221 34.251 C 87.358 36.151,93.237 45.419,89.696 49.188 C 87.692 51.322,84.231 49.710,84.231 46.642 C 84.231 41.170,76.958 38.335,72.566 42.095 C 68.124 45.898,71.371 54.065,77.325 54.065 C 78.807 54.065,80.705 55.824,80.705 57.199 C 80.705 61.833,72.131 61.001,67.566 55.925 C 59.056 46.459,68.073 31.017,80.221 34.251 M291.205 67.486 C 308.446 84.765,309.500 85.919,309.500 87.511 C 309.500 88.267,309.339 88.986,309.141 89.108 C 308.924 89.243,308.926 89.853,309.147 90.655 C 309.365 91.442,309.471 105.919,309.409 126.337 L 309.305 160.695 308.205 161.640 C 306.685 162.948,305.029 162.876,303.594 161.441 L 302.449 160.295 302.449 125.593 L 302.449 90.891 289.980 90.891 L 277.512 90.891 276.665 89.991 C 275.840 89.111,275.817 88.788,275.716 76.572 L 275.612 64.055 191.675 63.956 L 107.738 63.857 107.738 71.724 L 107.738 79.590 106.592 80.735 C 105.459 81.869,103.433 82.280,102.426 81.581 C 100.796 80.449,100.686 79.690,100.686 69.623 C 100.686 59.747,100.810 58.783,102.219 57.701 C 102.703 57.329,122.507 57.221,191.890 57.211 L 280.941 57.199 291.205 67.486 M282.468 76.787 L 282.468 83.839 289.810 83.839 L 297.151 83.839 290.108 76.787 C 286.234 72.909,282.930 69.736,282.766 69.736 C 282.602 69.736,282.468 72.909,282.468 76.787 M136.048 88.282 C 139.981 89.652,140.858 92.013,140.802 101.077 C 140.749 109.641,139.483 113.222,136.509 113.222 C 136.009 113.222,135.491 113.399,135.357 113.614 C 135.220 113.836,133.272 114.006,130.852 114.006 C 128.433 114.006,126.484 113.836,126.347 113.614 C 126.214 113.399,125.833 113.222,125.501 113.222 C 124.620 113.222,122.233 110.693,122.233 109.759 C 122.233 109.319,122.057 108.850,121.841 108.717 C 121.602 108.569,121.450 105.521,121.450 100.881 C 121.450 96.242,121.602 93.194,121.841 93.046 C 122.057 92.913,122.233 92.444,122.233 92.004 C 122.233 91.565,122.833 90.605,123.565 89.873 C 124.298 89.140,125.257 88.541,125.697 88.541 C 126.137 88.541,126.605 88.364,126.738 88.149 C 127.093 87.576,134.316 87.679,136.048 88.282 M152.444 88.222 C 152.986 88.477,153.638 89.130,153.894 89.671 C 154.490 90.935,154.559 111.655,153.967 111.655 C 153.751 111.655,153.575 112.008,153.575 112.439 C 153.575 112.950,153.314 113.222,152.824 113.222 C 152.411 113.222,152.004 113.429,151.920 113.680 C 151.674 114.419,149.387 113.210,148.855 112.060 C 148.552 111.406,148.359 107.724,148.290 101.273 C 148.177 90.718,148.401 89.156,150.153 88.287 C 151.345 87.696,151.332 87.697,152.444 88.222 M165.328 88.149 C 165.328 88.364,165.637 88.542,166.014 88.544 C 167.453 88.550,167.679 90.221,167.679 100.881 C 167.679 113.164,167.094 115.027,163.709 113.528 C 161.924 112.738,161.802 111.935,161.802 100.941 C 161.802 90.218,162.026 88.550,163.467 88.544 C 163.844 88.542,164.153 88.364,164.153 88.149 C 164.153 87.933,164.417 87.757,164.740 87.757 C 165.064 87.757,165.328 87.933,165.328 88.149 M179.100 88.229 C 181.053 89.151,181.278 90.555,181.189 101.273 C 181.103 111.653,180.936 112.704,179.227 113.619 C 178.083 114.231,175.906 113.394,175.906 112.343 C 175.906 111.965,175.730 111.655,175.514 111.655 C 175.263 111.655,175.122 107.803,175.122 100.881 C 175.122 93.960,175.263 90.108,175.514 90.108 C 175.730 90.108,175.906 89.827,175.906 89.483 C 175.906 89.140,176.259 88.767,176.690 88.654 C 177.120 88.541,177.473 88.294,177.473 88.103 C 177.473 87.634,177.912 87.668,179.100 88.229 M203.302 88.234 C 204.927 88.789,207.248 91.059,207.248 92.093 C 207.248 92.484,207.424 92.913,207.640 93.046 C 207.879 93.194,208.031 96.242,208.031 100.881 C 208.031 105.521,207.879 108.569,207.640 108.717 C 207.424 108.850,207.248 109.319,207.248 109.759 C 207.248 110.794,204.820 113.222,203.784 113.222 C 203.344 113.222,202.876 113.399,202.742 113.614 C 202.605 113.836,200.657 114.006,198.237 114.006 C 195.817 114.006,193.869 113.836,193.732 113.614 C 193.598 113.399,193.168 113.222,192.776 113.222 C 189.784 113.222,188.320 108.586,188.652 100.164 C 188.980 91.836,190.214 88.541,193.002 88.541 C 193.486 88.541,193.990 88.364,194.123 88.149 C 194.466 87.594,201.620 87.661,203.302 88.234 M219.492 88.247 C 220.063 88.516,220.716 89.141,220.941 89.636 C 221.500 90.861,221.495 110.913,220.936 112.140 C 220.440 113.227,218.151 114.394,217.913 113.680 C 217.829 113.429,217.467 113.221,217.107 113.219 C 215.697 113.213,215.475 111.498,215.475 100.607 C 215.475 93.869,215.615 90.108,215.867 90.108 C 216.082 90.108,216.259 89.755,216.259 89.324 C 216.259 88.802,216.520 88.541,217.042 88.541 C 217.473 88.541,217.826 88.364,217.826 88.149 C 217.826 87.631,218.236 87.655,219.492 88.247 M233.045 88.373 C 233.724 88.712,234.280 89.241,234.280 89.549 C 234.280 89.856,234.456 90.108,234.672 90.108 C 234.924 90.108,235.064 93.960,235.064 100.881 C 235.064 107.803,234.924 111.655,234.672 111.655 C 234.456 111.655,234.280 112.008,234.280 112.439 C 234.280 112.950,234.019 113.222,233.529 113.222 C 233.116 113.222,232.708 113.433,232.622 113.692 C 232.364 114.465,229.960 113.246,229.534 112.125 C 229.330 111.589,229.125 106.636,229.077 101.119 C 228.985 90.407,229.163 89.128,230.863 88.285 C 231.342 88.048,231.751 87.832,231.771 87.805 C 231.792 87.779,232.365 88.034,233.045 88.373 M256.807 88.149 C 256.940 88.364,257.313 88.541,257.635 88.541 C 260.465 88.541,261.691 92.252,261.698 100.836 C 261.706 109.762,260.513 113.222,257.428 113.222 C 257.004 113.222,256.548 113.399,256.415 113.614 C 256.278 113.836,254.329 114.006,251.910 114.006 C 249.490 114.006,247.542 113.836,247.405 113.614 C 247.271 113.399,246.849 113.222,246.465 113.222 C 243.748 113.222,242.507 109.354,242.507 100.881 C 242.507 92.236,243.779 88.541,246.755 88.541 C 247.194 88.541,247.663 88.364,247.796 88.149 C 247.934 87.927,249.882 87.757,252.302 87.757 C 254.721 87.757,256.670 87.927,256.807 88.149 M356.709 91.461 C 360.844 92.421,363.565 94.371,363.565 96.376 C 363.565 99.190,360.962 100.134,357.531 98.565 C 349.769 95.015,341.593 100.090,340.863 108.912 C 340.529 112.942,340.510 112.978,338.170 114.174 C 330.196 118.250,331.260 129.010,339.821 130.862 C 343.493 131.657,377.539 131.210,379.278 130.344 C 383.080 128.451,384.514 125.940,384.438 121.308 C 384.327 114.574,389.957 113.520,390.782 120.121 C 391.675 127.268,387.732 133.757,380.760 136.612 C 379.179 137.259,377.361 137.316,358.276 137.316 L 337.512 137.316 335.162 136.165 C 324.977 131.177,323.220 116.908,331.989 110.401 C 333.910 108.975,334.574 107.888,334.574 106.170 C 334.574 102.851,338.110 97.285,342.116 94.297 C 345.917 91.463,351.794 90.320,356.709 91.461 M250.040 93.921 L 248.366 94.071 248.473 101.002 L 248.580 107.933 252.106 107.933 L 255.632 107.933 255.739 101.106 C 255.869 92.875,256.256 93.363,250.040 93.921 M127.415 100.979 L 127.522 107.933 131.048 107.933 L 134.574 107.933 134.681 100.979 L 134.788 94.025 131.048 94.025 L 127.308 94.025 127.415 100.979 M194.800 100.979 L 194.907 107.933 197.641 108.051 C 202.495 108.261,202.155 108.802,202.155 100.874 L 202.155 94.025 198.424 94.025 L 194.693 94.025 194.800 100.979 M377.378 100.663 C 379.678 102.057,381.748 104.715,382.415 107.131 C 383.904 112.525,378.327 114.446,376.446 109.187 C 375.437 106.367,373.079 104.951,370.481 105.603 C 367.879 106.256,365.604 102.748,367.237 100.598 C 368.730 98.632,374.084 98.667,377.378 100.663 M101.056 122.935 C 103.737 124.760,105.594 127.335,106.799 130.896 L 107.738 133.670 107.738 162.066 L 107.738 190.462 106.592 191.607 C 105.056 193.143,103.011 193.188,101.646 191.716 L 100.686 190.679 100.677 162.235 C 100.667 130.082,100.839 131.887,97.547 129.248 C 93.868 126.300,93.163 124.684,94.720 122.774 C 96.420 120.687,97.807 120.723,101.056 122.935 M135.853 121.796 C 136.227 121.986,136.975 122.345,137.515 122.595 C 140.193 123.829,141.314 128.707,140.855 137.120 C 140.503 143.560,139.004 146.915,136.479 146.915 C 135.995 146.915,135.491 147.091,135.357 147.307 C 135.221 147.527,133.337 147.698,131.048 147.698 C 128.759 147.698,126.875 147.527,126.738 147.307 C 126.605 147.091,126.137 146.915,125.697 146.915 C 124.661 146.915,122.233 144.487,122.233 143.451 C 122.233 143.011,122.057 142.543,121.841 142.409 C 121.602 142.261,121.450 139.214,121.450 134.574 C 121.450 129.934,121.602 126.886,121.841 126.738 C 122.057 126.605,122.233 126.137,122.233 125.697 C 122.233 125.257,122.833 124.298,123.565 123.565 C 124.298 122.833,125.257 122.233,125.697 122.233 C 126.137 122.233,126.605 122.057,126.738 121.841 C 127.038 121.356,134.911 121.317,135.853 121.796 M152.444 121.914 C 152.986 122.170,153.638 122.822,153.894 123.364 C 154.490 124.627,154.559 145.348,153.967 145.348 C 153.751 145.348,153.575 145.618,153.575 145.948 C 153.575 146.278,153.266 146.661,152.889 146.801 C 152.512 146.940,152.091 147.222,151.953 147.428 C 151.547 148.033,149.364 146.852,148.855 145.752 C 148.552 145.099,148.359 141.417,148.290 134.966 C 148.177 124.411,148.401 122.848,150.153 121.980 C 151.345 121.389,151.332 121.389,152.444 121.914 M165.765 121.914 C 167.544 122.754,167.679 123.648,167.679 134.574 C 167.679 145.180,167.451 146.905,166.046 146.912 C 165.687 146.913,165.325 147.121,165.241 147.373 C 164.995 148.110,162.819 146.954,162.273 145.796 C 161.944 145.100,161.802 141.716,161.802 134.574 C 161.802 123.859,161.956 122.746,163.547 121.948 C 164.654 121.393,164.659 121.392,165.765 121.914 M189.422 121.841 C 189.555 122.057,189.972 122.233,190.348 122.233 C 191.478 122.233,193.928 124.749,193.928 125.910 C 193.928 126.473,194.104 126.934,194.319 126.934 C 194.567 126.934,194.711 129.669,194.711 134.355 C 194.711 138.879,194.558 141.870,194.319 142.018 C 194.104 142.151,193.928 142.672,193.928 143.177 C 193.928 144.381,191.393 146.915,190.190 146.915 C 189.685 146.915,189.164 147.091,189.030 147.307 C 188.894 147.527,187.010 147.698,184.721 147.698 C 182.432 147.698,180.548 147.527,180.411 147.307 C 180.278 147.091,179.807 146.915,179.364 146.915 C 178.413 146.915,175.906 144.320,175.906 143.335 C 175.906 142.959,175.730 142.543,175.514 142.409 C 175.275 142.261,175.122 139.214,175.122 134.574 C 175.122 129.934,175.275 126.886,175.514 126.738 C 175.730 126.605,175.906 126.134,175.906 125.691 C 175.906 124.740,178.501 122.233,179.485 122.233 C 179.861 122.233,180.278 122.057,180.411 121.841 C 180.549 121.619,182.497 121.450,184.917 121.450 C 187.336 121.450,189.285 121.619,189.422 121.841 M206.117 121.914 C 207.896 122.754,208.031 123.648,208.031 134.574 C 208.031 145.180,207.803 146.905,206.399 146.912 C 206.040 146.913,205.677 147.121,205.593 147.373 C 205.348 148.110,203.172 146.954,202.625 145.796 C 202.009 144.491,201.962 124.651,202.572 123.313 C 202.921 122.548,204.018 121.698,204.917 121.498 C 205.036 121.471,205.576 121.659,206.117 121.914 M230.114 121.989 C 232.124 122.688,234.261 124.564,234.272 125.638 C 234.276 126.110,234.456 126.605,234.672 126.738 C 234.911 126.886,235.064 129.934,235.064 134.574 C 235.064 139.214,234.911 142.261,234.672 142.409 C 234.456 142.543,234.280 143.014,234.280 143.457 C 234.280 144.381,231.697 146.915,230.756 146.915 C 230.410 146.915,229.939 147.103,229.709 147.333 C 229.245 147.797,221.936 147.626,220.006 147.106 C 218.563 146.717,216.259 144.453,216.259 143.425 C 216.259 143.000,216.082 142.543,215.867 142.409 C 215.276 142.044,215.358 127.915,215.961 126.179 C 217.372 122.116,224.456 120.019,230.114 121.989 M256.807 121.841 C 256.940 122.057,257.308 122.233,257.624 122.233 C 260.504 122.233,261.706 125.885,261.698 134.619 C 261.691 143.400,260.473 146.915,257.439 146.915 C 257.009 146.915,256.548 147.091,256.415 147.307 C 256.055 147.889,248.835 147.775,247.065 147.159 C 243.298 145.848,242.507 143.665,242.507 134.574 C 242.507 125.928,243.779 122.233,246.755 122.233 C 247.194 122.233,247.663 122.057,247.796 121.841 C 247.934 121.619,249.882 121.450,252.302 121.450 C 254.721 121.450,256.670 121.619,256.807 121.841 M273.667 122.082 C 274.198 122.430,274.633 122.959,274.633 123.258 C 274.633 123.556,274.809 123.800,275.024 123.800 C 275.276 123.800,275.416 127.653,275.416 134.574 C 275.416 140.976,275.268 145.348,275.051 145.348 C 274.850 145.348,274.586 145.656,274.464 146.033 C 274.342 146.410,273.801 146.923,273.262 147.172 C 272.092 147.712,270.452 147.122,270.100 146.033 C 269.978 145.656,269.714 145.348,269.513 145.348 C 268.940 145.348,269.040 124.576,269.619 123.349 C 270.437 121.617,272.143 121.083,273.667 122.082 M286.823 121.914 C 287.364 122.170,288.016 122.822,288.272 123.364 C 288.868 124.627,288.937 145.348,288.345 145.348 C 288.129 145.348,287.953 145.700,287.953 146.131 C 287.953 146.642,287.692 146.915,287.202 146.915 C 286.789 146.915,286.382 147.121,286.298 147.373 C 286.053 148.110,283.877 146.954,283.330 145.796 C 283.002 145.100,282.860 141.716,282.860 134.574 C 282.860 123.859,283.014 122.746,284.605 121.948 C 285.712 121.393,285.717 121.392,286.823 121.914 M127.601 127.573 C 127.450 127.725,127.326 130.892,127.326 134.613 C 127.326 142.494,127.046 142.062,131.857 141.611 L 134.788 141.336 134.681 134.429 L 134.574 127.522 131.225 127.410 C 129.384 127.348,127.753 127.422,127.601 127.573 M181.557 127.766 C 181.079 128.539,180.849 140.580,181.301 141.127 C 181.591 141.479,182.692 141.589,185.034 141.500 L 188.356 141.375 188.638 135.184 C 189.011 126.967,189.173 127.326,185.109 127.326 C 183.105 127.326,181.723 127.497,181.557 127.766 M221.613 127.587 C 221.469 127.731,221.352 130.885,221.352 134.597 C 221.352 142.330,221.079 141.822,225.227 141.822 C 229.394 141.822,229.308 142.000,228.972 134.064 L 228.687 127.326 225.280 127.326 C 223.407 127.326,221.756 127.444,221.613 127.587 M248.874 127.578 C 248.508 127.731,248.384 129.518,248.384 134.607 L 248.384 141.430 252.115 141.430 L 255.846 141.430 255.739 134.476 L 255.632 127.522 252.498 127.448 C 250.774 127.407,249.143 127.465,248.874 127.578 M125.412 155.607 C 125.954 155.862,126.606 156.514,126.861 157.056 C 127.458 158.319,127.526 179.040,126.934 179.040 C 126.719 179.040,126.543 179.321,126.543 179.664 C 126.543 180.008,126.190 180.381,125.759 180.494 C 125.328 180.606,124.976 180.854,124.976 181.045 C 124.976 181.235,124.711 181.391,124.388 181.391 C 124.065 181.391,123.800 181.235,123.800 181.045 C 123.800 180.854,123.448 180.606,123.017 180.494 C 122.586 180.381,122.233 180.008,122.233 179.664 C 122.233 179.321,122.057 179.040,121.841 179.040 C 121.590 179.040,121.450 175.279,121.450 168.540 C 121.450 157.538,121.598 156.441,123.194 155.641 C 124.301 155.085,124.307 155.085,125.412 155.607 M139.113 155.644 C 140.664 156.835,140.783 157.745,140.771 168.347 C 140.758 179.463,140.696 179.820,138.569 180.957 C 137.691 181.428,137.480 181.415,136.921 180.856 C 136.569 180.504,136.161 180.214,136.015 180.212 C 134.750 180.198,134.060 159.545,135.241 157.042 C 136.001 155.432,137.930 154.736,139.113 155.644 M162.390 155.534 C 162.523 155.749,162.976 155.926,163.396 155.926 C 166.512 155.926,167.679 159.214,167.679 167.993 C 167.679 176.929,166.440 180.607,163.432 180.607 C 162.992 180.607,162.523 180.784,162.390 180.999 C 162.254 181.219,160.369 181.391,158.080 181.391 C 155.791 181.391,153.907 181.219,153.771 180.999 C 153.638 180.784,153.142 180.599,152.670 180.588 C 152.198 180.577,151.116 179.885,150.266 179.050 L 148.720 177.530 148.419 169.568 C 148.039 159.529,148.529 157.723,152.099 155.992 C 153.939 155.099,161.902 154.745,162.390 155.534 M179.152 155.632 C 181.061 156.521,181.277 157.898,181.193 168.658 C 181.141 175.383,180.969 178.763,180.642 179.445 C 180.090 180.599,177.805 181.800,177.560 181.065 C 177.476 180.813,177.171 180.607,176.881 180.607 C 176.592 180.607,176.078 180.051,175.739 179.372 C 175.005 177.902,174.796 157.493,175.514 157.493 C 175.730 157.493,175.906 157.182,175.906 156.802 C 175.906 156.422,176.303 155.915,176.787 155.675 C 177.991 155.079,177.966 155.079,179.152 155.632 M192.867 155.632 C 193.447 155.901,193.923 156.430,193.924 156.807 C 193.926 157.184,194.104 157.493,194.319 157.493 C 194.932 157.493,194.840 177.823,194.221 179.155 C 193.952 179.735,193.612 180.211,193.466 180.212 C 193.320 180.214,192.912 180.504,192.559 180.856 C 192.001 181.415,191.790 181.428,190.911 180.957 C 188.693 179.770,188.630 179.404,188.732 168.283 C 188.828 157.676,189.006 156.416,190.511 155.670 C 191.701 155.080,191.679 155.080,192.867 155.632 M216.668 155.638 C 220.823 157.086,221.352 158.514,221.352 168.288 C 221.352 176.910,220.082 180.607,217.121 180.607 C 216.672 180.607,216.196 180.784,216.063 180.999 C 215.926 181.219,214.042 181.391,211.753 181.391 C 209.464 181.391,207.580 181.219,207.444 180.999 C 207.311 180.784,206.834 180.607,206.386 180.607 C 203.440 180.607,202.155 176.902,202.155 168.408 C 202.155 159.036,202.839 157.022,206.464 155.726 C 208.270 155.080,214.903 155.023,216.668 155.638 M233.150 155.607 C 234.924 156.444,235.064 157.352,235.064 168.071 C 235.064 178.876,234.944 179.624,233.043 180.715 C 229.836 182.556,229.194 180.571,229.083 168.462 C 228.985 157.792,229.163 156.514,230.863 155.670 C 232.050 155.081,232.037 155.082,233.150 155.607 M246.470 155.607 C 247.012 155.862,247.664 156.514,247.919 157.056 C 248.574 158.442,248.569 178.101,247.914 179.489 C 247.268 180.857,245.461 181.646,244.552 180.956 C 242.498 179.398,242.525 179.567,242.516 168.442 C 242.507 157.539,242.656 156.441,244.252 155.641 C 245.359 155.085,245.364 155.085,246.470 155.607 M259.845 155.632 C 261.587 156.453,261.704 157.262,261.704 168.451 L 261.704 178.980 260.499 180.185 C 259.313 181.371,258.178 181.769,258.178 180.999 C 258.178 180.784,257.927 180.607,257.619 180.607 C 256.123 180.607,255.828 178.546,255.828 168.088 C 255.828 157.560,255.985 156.437,257.572 155.641 C 258.683 155.083,258.681 155.083,259.845 155.632 M283.448 155.534 C 283.581 155.749,284.087 155.926,284.572 155.926 C 285.737 155.926,287.953 158.124,287.953 159.279 C 287.953 159.779,288.129 160.298,288.345 160.431 C 288.979 160.823,288.837 174.604,288.180 176.493 C 287.510 178.418,285.367 180.607,284.152 180.607 C 283.657 180.607,283.252 180.784,283.252 180.999 C 283.252 181.235,281.627 181.391,279.161 181.391 C 276.857 181.391,274.965 181.220,274.829 180.999 C 274.695 180.784,274.237 180.607,273.809 180.607 C 272.813 180.607,269.931 177.958,269.931 177.041 C 269.931 176.658,269.755 176.235,269.540 176.102 C 269.300 175.954,269.148 172.898,269.148 168.243 C 269.148 163.427,269.292 160.627,269.540 160.627 C 269.755 160.627,269.931 160.140,269.931 159.546 C 269.931 158.276,271.785 156.476,273.867 155.724 C 275.511 155.130,283.105 154.979,283.448 155.534 M154.358 168.071 L 154.358 175.122 158.080 175.122 L 161.802 175.122 161.802 168.071 L 161.802 161.019 158.080 161.019 L 154.358 161.019 154.358 168.071 M208.031 168.056 L 208.031 175.122 211.762 175.122 L 215.493 175.122 215.386 168.168 L 215.279 161.214 211.655 161.102 L 208.031 160.989 208.031 168.056 M275.416 168.056 L 275.416 175.122 279.147 175.122 L 282.878 175.122 282.771 168.168 L 282.664 161.214 279.040 161.102 L 275.416 160.989 275.416 168.056 M60.776 172.264 C 68.619 174.493,74.879 181.902,75.798 190.045 C 76.039 192.183,76.100 192.274,78.364 193.871 C 90.455 202.397,86.505 220.888,71.773 224.728 C 69.100 225.425,27.297 225.524,24.365 224.841 C 8.652 221.177,5.273 201.191,18.978 192.973 C 22.312 190.974,24.474 191.143,25.442 193.481 C 26.138 195.160,25.208 196.690,22.594 198.165 C 20.306 199.457,17.630 202.266,17.630 203.377 C 17.630 203.757,17.453 204.176,17.238 204.310 C 17.023 204.443,16.846 205.849,16.846 207.434 C 16.846 212.804,19.326 216.362,24.290 218.114 C 25.316 218.476,31.305 218.599,48.078 218.603 L 70.496 218.609 72.602 217.646 C 81.148 213.737,81.044 201.674,72.432 197.870 C 69.963 196.779,69.689 196.336,69.564 193.225 C 69.181 183.720,63.251 178.085,53.741 178.188 C 48.784 178.241,46.465 175.931,48.690 173.156 C 49.910 171.635,56.778 171.128,60.776 172.264 M41.892 179.613 C 43.894 180.649,44.010 182.467,42.276 185.640 C 40.137 189.554,38.263 190.304,35.516 188.345 C 34.471 187.599,33.837 187.475,31.403 187.542 C 27.381 187.653,25.562 185.706,27.064 182.899 C 27.954 181.236,33.595 180.290,35.750 181.444 C 36.454 181.820,36.708 181.739,37.419 180.914 C 39.050 179.017,40.131 178.703,41.892 179.613 M136.309 189.322 C 140.268 190.703,141.766 196.582,140.707 206.585 C 140.031 212.972,138.846 214.118,132.250 214.761 C 123.361 215.627,121.465 213.349,121.455 201.791 C 121.448 193.022,122.270 190.689,125.823 189.402 C 127.586 188.763,134.553 188.710,136.309 189.322 M152.479 189.245 C 154.200 190.029,154.358 191.088,154.358 201.763 C 154.358 212.612,154.208 213.544,152.331 214.326 C 150.998 214.881,149.810 214.505,149.003 213.273 C 148.076 211.859,147.889 192.808,148.783 190.933 C 149.633 189.151,150.952 188.549,152.479 189.245 M165.765 189.299 C 167.539 190.137,167.679 191.044,167.679 201.763 C 167.679 213.698,167.215 215.278,163.955 214.460 C 161.928 213.951,161.802 213.225,161.802 202.051 C 161.802 191.240,161.954 190.132,163.547 189.333 C 164.654 188.777,164.659 188.777,165.765 189.299 M189.982 189.320 C 191.731 189.928,193.928 192.021,193.928 193.082 C 193.928 193.521,194.104 193.990,194.319 194.123 C 194.558 194.271,194.711 197.254,194.711 201.763 C 194.711 206.272,194.558 209.255,194.319 209.403 C 194.104 209.536,193.928 209.992,193.928 210.416 C 193.928 213.265,190.067 214.840,183.590 214.634 L 179.073 214.491 177.588 213.039 C 176.770 212.241,175.881 210.878,175.612 210.011 C 175.008 208.069,174.925 194.488,175.514 194.123 C 175.730 193.990,175.906 193.521,175.906 193.082 C 175.906 189.869,184.754 187.505,189.982 189.320 M206.152 189.245 C 207.872 190.029,208.031 191.088,208.031 201.763 C 208.031 212.490,207.877 213.495,206.106 214.302 C 204.861 214.870,203.196 214.197,202.597 212.884 C 201.975 211.518,201.987 191.841,202.611 190.670 C 203.521 188.960,204.587 188.531,206.152 189.245 M220.319 189.867 L 221.352 190.900 221.339 201.718 C 221.326 213.136,221.304 213.284,219.455 214.269 C 218.375 214.844,216.259 214.184,216.259 213.273 C 216.259 212.976,216.082 212.733,215.867 212.733 C 215.269 212.733,215.344 192.011,215.946 190.734 C 216.874 188.769,218.832 188.381,220.319 189.867 M233.150 189.299 C 234.924 190.137,235.064 191.044,235.064 201.763 C 235.064 212.612,234.913 213.544,233.036 214.326 C 229.664 215.730,229.197 214.310,229.086 202.316 C 228.985 191.466,229.169 190.127,230.880 189.300 C 232.000 188.759,232.005 188.759,233.150 189.299 M256.807 189.226 C 256.940 189.442,257.367 189.618,257.756 189.618 C 260.691 189.618,261.769 193.110,261.628 202.155 C 261.456 213.139,260.666 214.337,253.392 214.629 C 243.803 215.014,242.519 213.495,242.519 201.763 C 242.519 192.853,243.278 190.710,246.899 189.396 C 248.492 188.818,256.470 188.681,256.807 189.226 M273.667 189.467 C 274.198 189.815,274.633 190.344,274.633 190.643 C 274.633 190.941,274.809 191.185,275.024 191.185 C 275.276 191.185,275.416 194.958,275.416 201.722 L 275.416 212.258 274.280 213.475 C 273.655 214.144,272.756 214.691,272.282 214.691 C 271.809 214.691,270.910 214.144,270.285 213.475 L 269.148 212.258 269.148 201.996 C 269.148 191.225,269.311 190.050,270.911 189.270 C 272.044 188.717,272.581 188.756,273.667 189.467 M286.912 189.269 C 287.437 189.509,288.062 190.134,288.302 190.659 C 288.943 192.066,288.895 211.454,288.247 212.841 C 287.290 214.890,284.815 215.051,283.362 213.158 C 282.719 212.321,282.660 192.053,283.296 190.656 C 283.992 189.128,285.410 188.585,286.912 189.269 M127.326 201.763 L 127.326 208.815 131.048 208.815 L 134.770 208.815 134.770 201.763 L 134.770 194.711 131.048 194.711 L 127.326 194.711 127.326 201.763 M181.251 197.119 C 180.932 200.168,180.923 207.377,181.237 208.195 C 181.429 208.695,182.139 208.815,184.909 208.815 L 188.342 208.815 188.625 202.579 C 189.000 194.295,189.195 194.711,184.946 194.711 L 181.502 194.711 181.251 197.119 M248.645 194.972 C 248.501 195.116,248.384 198.289,248.384 202.024 L 248.384 208.815 252.106 208.815 L 255.828 208.815 255.828 201.763 L 255.828 194.711 252.367 194.711 C 250.464 194.711,248.789 194.829,248.645 194.972 M105.511 199.850 C 109.045 201.658,108.663 212.136,105.035 212.862 C 101.726 213.523,100.686 211.918,100.686 206.151 C 100.686 200.388,102.339 198.228,105.511 199.850 M318.413 206.170 C 319.740 207.409,319.628 209.739,318.175 211.098 C 313.993 215.010,312.675 216.502,311.698 218.431 C 309.395 222.979,309.510 219.529,309.505 284.323 L 309.500 343.964 308.405 345.190 C 307.175 346.566,301.559 347.291,299.217 346.376 C 295.405 344.887,296.619 339.697,300.784 339.676 L 302.449 339.667 302.449 282.370 C 302.449 234.961,302.542 224.634,302.993 222.527 C 305.287 211.789,314.249 202.283,318.413 206.170 M105.213 219.846 C 107.933 220.829,107.738 216.090,107.738 281.059 L 107.738 339.667 147.520 339.667 L 187.303 339.667 188.265 340.629 C 189.617 341.981,189.594 344.278,188.215 345.573 L 187.204 346.523 146.981 346.641 C 103.252 346.769,103.010 346.762,101.614 345.256 L 100.686 344.254 100.699 283.292 C 100.714 217.787,100.611 221.091,102.688 219.939 C 103.847 219.297,103.710 219.302,105.213 219.846 M359.470 223.939 C 361.120 225.685,361.398 226.358,361.236 228.208 C 360.855 232.549,352.729 229.338,352.845 224.892 C 352.941 221.226,356.433 220.724,359.470 223.939 M372.562 222.737 C 374.593 224.768,371.093 230.362,367.791 230.362 C 364.231 230.362,363.589 226.941,366.601 224.028 C 369.128 221.584,371.003 221.178,372.562 222.737 M175.686 222.731 C 178.446 223.568,179.121 224.119,180.297 226.493 L 181.339 228.599 181.064 236.043 C 180.661 246.932,179.853 248.056,172.236 248.324 C 163.213 248.642,161.814 246.914,161.814 235.455 C 161.814 227.916,162.143 226.234,163.978 224.400 C 166.050 222.327,171.701 221.522,175.686 222.731 M125.447 222.937 C 127.167 223.722,127.326 224.780,127.326 235.455 C 127.326 247.505,126.746 249.380,123.442 248.004 C 121.604 247.238,121.450 246.267,121.450 235.455 C 121.450 224.930,121.617 223.740,123.213 222.962 C 124.247 222.458,124.391 222.456,125.447 222.937 M149.952 223.049 C 151.716 223.688,153.575 225.537,153.575 226.651 C 153.575 227.158,153.751 227.683,153.967 227.816 C 154.205 227.963,154.358 230.946,154.358 235.455 C 154.358 239.964,154.205 242.947,153.967 243.095 C 153.751 243.228,153.575 243.697,153.575 244.137 C 153.575 248.613,140.919 250.153,136.827 246.174 C 136.126 245.493,135.553 244.665,135.553 244.333 C 135.553 244.001,135.377 243.620,135.162 243.487 C 134.922 243.339,134.770 240.291,134.770 235.651 C 134.770 231.012,134.922 227.964,135.162 227.816 C 135.377 227.683,135.553 227.164,135.553 226.664 C 135.553 223.422,144.671 221.133,149.952 223.049 M192.832 222.937 C 194.558 223.724,194.711 224.764,194.711 235.729 C 194.711 242.337,194.571 246.033,194.319 246.033 C 194.104 246.033,193.928 246.343,193.928 246.721 C 193.928 248.725,190.054 248.517,189.285 246.472 C 188.006 243.070,188.462 224.823,189.861 223.424 C 190.854 222.431,191.492 222.326,192.832 222.937 M218.217 223.517 C 222.046 225.735,222.905 242.711,219.371 246.326 C 215.732 250.048,202.938 248.558,202.938 244.412 C 202.938 244.037,202.762 243.620,202.547 243.487 C 201.957 243.122,202.041 229.164,202.644 227.149 C 203.235 225.179,205.244 223.042,206.744 222.790 C 209.788 222.277,216.850 222.725,218.217 223.517 M233.282 222.982 C 233.831 223.232,234.280 223.672,234.280 223.961 C 234.280 224.250,234.456 224.486,234.672 224.486 C 234.924 224.486,235.064 228.338,235.064 235.260 C 235.064 242.181,234.924 246.033,234.672 246.033 C 234.456 246.033,234.280 246.343,234.280 246.721 C 234.280 247.576,232.233 248.533,231.144 248.187 C 229.508 247.668,229.289 246.619,229.062 238.198 C 228.678 224.014,229.449 221.235,233.282 222.982 M246.505 222.937 C 248.226 223.722,248.384 224.777,248.384 235.515 C 248.384 246.443,248.256 247.234,246.355 248.021 C 244.959 248.600,243.608 248.021,242.942 246.559 C 242.344 245.247,242.346 225.661,242.944 224.348 C 243.629 222.845,245.059 222.278,246.505 222.937 M273.055 224.290 C 273.902 225.152,274.603 226.243,274.613 226.715 C 274.624 227.187,274.809 227.683,275.024 227.816 C 275.263 227.963,275.416 230.946,275.416 235.455 C 275.416 239.964,275.263 242.947,275.024 243.095 C 274.809 243.228,274.633 243.704,274.633 244.153 C 274.633 244.602,274.111 245.468,273.474 246.077 C 269.188 250.173,256.611 248.726,256.611 244.137 C 256.611 243.697,256.435 243.228,256.219 243.095 C 255.981 242.947,255.828 239.964,255.828 235.455 C 255.828 230.946,255.981 227.963,256.219 227.816 C 256.435 227.683,256.611 227.143,256.611 226.617 C 256.611 226.091,256.787 225.661,257.003 225.661 C 257.218 225.661,257.400 225.441,257.407 225.171 C 257.451 223.412,260.583 222.541,266.512 222.640 L 271.515 222.723 273.055 224.290 M286.695 222.778 C 288.547 223.274,288.737 224.442,288.737 235.358 C 288.737 246.304,288.588 247.236,286.715 248.016 C 285.581 248.488,284.269 248.032,283.362 246.851 C 282.719 246.013,282.660 225.745,283.296 224.348 C 283.926 222.966,285.201 222.378,286.695 222.778 M141.005 228.697 C 140.864 229.952,140.817 241.633,140.951 242.018 C 141.228 242.812,147.935 242.692,148.244 241.888 C 148.557 241.073,148.548 235.181,148.229 231.401 L 147.975 228.404 144.507 228.404 C 142.599 228.404,141.023 228.536,141.005 228.697 M167.768 235.357 L 167.875 242.311 171.499 242.424 L 175.122 242.537 175.122 235.470 L 175.122 228.404 171.392 228.404 L 167.661 228.404 167.768 235.357 M208.031 235.455 L 208.031 242.507 211.753 242.507 L 215.475 242.507 215.475 235.455 L 215.475 228.404 211.753 228.404 L 208.031 228.404 208.031 235.455 M261.878 228.908 C 261.771 229.186,261.733 232.315,261.792 235.862 L 261.900 242.311 265.524 242.424 L 269.148 242.537 269.148 235.470 L 269.148 228.404 265.610 228.404 C 263.084 228.404,262.016 228.548,261.878 228.908 M360.643 234.689 C 363.504 237.851,356.698 244.433,353.684 241.419 C 352.246 239.982,352.634 237.996,354.776 235.821 C 357.131 233.430,359.150 233.040,360.643 234.689 M371.285 235.747 C 374.368 238.659,373.749 242.294,370.170 242.294 C 368.022 242.294,364.740 239.110,364.740 237.026 C 364.740 233.210,367.938 232.585,371.285 235.747 M136.026 256.345 C 139.982 257.723,140.814 259.889,140.791 268.756 C 140.767 278.139,140.027 280.167,136.135 281.521 C 134.314 282.155,126.716 282.282,126.347 281.685 C 126.214 281.469,125.833 281.293,125.501 281.293 C 124.620 281.293,122.233 278.763,122.233 277.829 C 122.233 277.389,122.057 276.921,121.841 276.787 C 121.210 276.398,121.349 262.618,122.003 260.725 C 122.692 258.729,124.744 256.611,125.988 256.611 C 126.509 256.611,126.934 256.435,126.934 256.219 C 126.934 255.642,134.300 255.744,136.026 256.345 M152.008 256.219 C 152.008 256.435,152.259 256.611,152.567 256.611 C 154.072 256.611,154.358 258.658,154.358 269.404 C 154.358 276.024,154.218 279.726,153.967 279.726 C 153.751 279.726,153.574 280.034,153.572 280.411 C 153.564 282.205,149.608 282.205,149.039 280.412 C 148.919 280.034,148.701 279.726,148.553 279.726 C 148.331 279.725,148.209 261.114,148.416 258.825 C 148.543 257.425,152.008 254.911,152.008 256.219 M165.328 256.219 C 165.328 256.435,165.572 256.611,165.871 256.611 C 167.623 256.611,168.772 276.860,167.208 280.174 C 166.180 282.354,163.216 282.400,162.237 280.252 C 161.668 279.003,161.627 258.178,162.194 258.178 C 162.409 258.178,162.586 257.897,162.586 257.554 C 162.586 257.211,162.938 256.837,163.369 256.725 C 163.800 256.612,164.153 256.364,164.153 256.174 C 164.153 255.983,164.417 255.828,164.740 255.828 C 165.064 255.828,165.328 256.004,165.328 256.219 M189.422 256.219 C 189.555 256.435,189.955 256.611,190.310 256.611 C 191.280 256.611,193.928 259.376,193.928 260.389 C 193.928 260.872,194.104 261.375,194.319 261.508 C 194.558 261.656,194.711 264.639,194.711 269.148 C 194.711 273.657,194.558 276.640,194.319 276.787 C 194.104 276.921,193.928 277.378,193.928 277.803 C 193.928 278.805,191.440 281.293,190.438 281.293 C 190.012 281.293,189.555 281.469,189.422 281.685 C 189.075 282.246,181.524 282.171,179.852 281.590 C 178.102 280.983,175.906 278.889,175.906 277.829 C 175.906 277.389,175.730 276.921,175.514 276.787 C 175.275 276.640,175.122 273.657,175.122 269.148 C 175.122 264.639,175.275 261.656,175.514 261.508 C 175.730 261.375,175.906 260.887,175.906 260.424 C 175.906 259.301,178.571 256.611,179.684 256.611 C 180.166 256.611,180.670 256.435,180.803 256.219 C 180.939 255.999,182.824 255.828,185.113 255.828 C 187.402 255.828,189.286 255.999,189.422 256.219 M206.282 256.460 C 206.813 256.808,207.248 257.337,207.248 257.636 C 207.248 257.934,207.424 258.178,207.640 258.178 C 208.232 258.178,208.163 278.899,207.567 280.162 C 206.533 282.354,203.657 282.361,202.625 280.174 C 202.009 278.869,201.962 259.029,202.572 257.691 C 202.939 256.885,204.104 256.017,205.009 255.876 C 205.178 255.849,205.751 256.112,206.282 256.460 M219.492 256.317 C 221.231 257.137,221.352 257.957,221.352 268.952 C 221.352 279.945,221.231 280.767,219.494 281.586 C 216.111 283.180,215.475 281.211,215.475 269.148 C 215.475 258.734,215.674 257.254,217.140 256.780 C 217.517 256.658,217.826 256.394,217.826 256.193 C 217.826 255.701,218.252 255.733,219.492 256.317 M233.203 256.589 C 233.795 256.886,234.280 257.365,234.280 257.653 C 234.280 257.942,234.456 258.178,234.672 258.178 C 234.924 258.178,235.064 262.031,235.064 268.952 C 235.064 275.873,234.924 279.726,234.672 279.726 C 234.456 279.726,234.280 280.035,234.280 280.414 C 234.280 282.233,230.520 282.322,229.602 280.525 C 229.158 279.656,228.793 264.425,229.128 260.774 C 229.395 257.875,230.859 255.348,231.929 255.940 C 232.037 256.000,232.610 256.292,233.203 256.589 M256.415 256.219 C 256.548 256.435,257.025 256.611,257.473 256.611 C 260.425 256.611,261.704 260.314,261.704 268.856 C 261.704 280.357,260.438 282.057,251.860 282.070 C 243.845 282.083,242.519 280.248,242.519 269.148 C 242.519 260.299,243.811 256.611,246.911 256.611 C 247.506 256.611,247.992 256.435,247.992 256.219 C 247.992 255.983,249.617 255.828,252.083 255.828 C 254.387 255.828,256.279 255.999,256.415 256.219 M274.115 257.248 L 275.416 258.669 275.416 269.197 C 275.416 275.955,275.276 279.726,275.024 279.726 C 274.809 279.726,274.633 279.970,274.633 280.268 C 274.633 280.897,272.981 282.076,272.100 282.076 C 271.769 282.076,271.499 281.921,271.499 281.730 C 271.499 281.540,271.146 281.292,270.715 281.179 C 270.284 281.067,269.931 280.693,269.931 280.350 C 269.931 280.007,269.755 279.726,269.540 279.726 C 269.288 279.726,269.148 275.873,269.148 268.952 C 269.148 262.031,269.288 258.178,269.540 258.178 C 269.755 258.178,269.931 257.897,269.931 257.554 C 269.931 257.211,270.284 256.837,270.715 256.725 C 271.146 256.612,271.499 256.364,271.499 256.174 C 271.499 255.356,272.914 255.937,274.115 257.248 M286.386 256.219 C 286.386 256.435,286.694 256.613,287.071 256.614 C 288.511 256.621,288.737 258.291,288.737 268.952 C 288.737 281.234,288.152 283.097,284.767 281.599 C 282.980 280.808,282.860 280.011,282.860 268.920 C 282.860 258.093,283.078 256.611,284.668 256.611 C 284.966 256.611,285.211 256.435,285.211 256.219 C 285.211 256.004,285.475 255.828,285.798 255.828 C 286.121 255.828,286.386 256.004,286.386 256.219 M127.326 269.163 L 127.326 276.229 130.950 276.117 L 134.574 276.004 134.681 269.050 L 134.788 262.096 131.057 262.096 L 127.326 262.096 127.326 269.163 M181.251 264.504 C 180.932 267.553,180.923 274.762,181.237 275.580 C 181.429 276.080,182.139 276.200,184.909 276.200 L 188.342 276.200 188.625 269.964 C 189.000 261.680,189.195 262.096,184.946 262.096 L 181.502 262.096 181.251 264.504 M248.384 269.148 L 248.384 276.200 252.106 276.200 L 255.828 276.200 255.828 269.148 L 255.828 262.096 252.106 262.096 L 248.384 262.096 248.384 269.148 M124.976 289.912 C 124.976 290.127,125.284 290.305,125.661 290.307 C 127.101 290.313,127.326 291.984,127.326 302.644 C 127.326 314.871,126.734 316.786,123.411 315.315 C 121.586 314.507,121.450 313.628,121.450 302.644 C 121.450 291.984,121.675 290.313,123.115 290.307 C 123.492 290.305,123.800 290.127,123.800 289.912 C 123.800 289.696,124.065 289.520,124.388 289.520 C 124.711 289.520,124.976 289.696,124.976 289.912 M148.678 289.912 C 148.811 290.127,149.344 290.304,149.863 290.304 C 151.108 290.304,153.575 292.771,153.575 294.015 C 153.575 294.534,153.751 295.068,153.967 295.201 C 154.205 295.348,154.358 298.331,154.358 302.840 C 154.358 307.349,154.205 310.332,153.967 310.480 C 153.751 310.613,153.575 311.085,153.575 311.528 C 153.575 312.479,150.980 314.985,149.996 314.985 C 149.619 314.985,149.203 315.162,149.070 315.377 C 148.932 315.599,146.984 315.769,144.564 315.769 C 142.145 315.769,140.196 315.599,140.059 315.377 C 139.926 315.162,139.509 314.985,139.133 314.985 C 138.148 314.985,135.553 312.479,135.553 311.528 C 135.553 311.085,135.377 310.613,135.162 310.480 C 134.923 310.332,134.770 307.349,134.770 302.840 C 134.770 298.331,134.923 295.348,135.162 295.201 C 135.377 295.068,135.553 294.511,135.553 293.963 C 135.553 292.638,137.887 290.304,139.213 290.304 C 139.760 290.304,140.317 290.127,140.451 289.912 C 140.586 289.693,142.406 289.520,144.564 289.520 C 146.723 289.520,148.543 289.693,148.678 289.912 M175.710 289.912 C 175.843 290.127,176.312 290.304,176.752 290.304 C 177.638 290.304,180.208 292.665,180.228 293.497 C 180.235 293.787,180.484 294.346,180.781 294.739 C 181.432 295.598,181.236 308.206,180.527 310.998 C 180.023 312.987,178.194 314.985,176.878 314.985 C 176.369 314.985,175.843 315.162,175.710 315.377 C 175.574 315.598,173.690 315.769,171.401 315.769 C 169.112 315.769,167.227 315.598,167.091 315.377 C 166.958 315.162,166.440 314.985,165.939 314.985 C 164.784 314.985,162.586 312.769,162.586 311.604 C 162.586 311.119,162.409 310.613,162.194 310.480 C 161.955 310.332,161.802 307.284,161.802 302.644 C 161.802 298.005,161.955 294.957,162.194 294.809 C 162.409 294.676,162.586 294.219,162.586 293.793 C 162.586 292.791,165.073 290.304,166.075 290.304 C 166.501 290.304,166.958 290.127,167.091 289.912 C 167.227 289.691,169.112 289.520,171.401 289.520 C 173.690 289.520,175.574 289.691,175.710 289.912 M192.360 289.912 C 192.360 290.127,192.641 290.304,192.985 290.304 C 193.328 290.304,193.701 290.656,193.814 291.087 C 193.927 291.518,194.175 291.871,194.365 291.871 C 194.557 291.871,194.711 296.671,194.711 302.644 C 194.711 309.566,194.571 313.418,194.319 313.418 C 194.104 313.418,193.928 313.771,193.928 314.202 C 193.928 314.713,193.666 314.985,193.177 314.985 C 192.764 314.985,192.357 315.191,192.273 315.443 C 192.001 316.260,189.684 314.914,189.138 313.621 C 188.523 312.165,188.610 293.020,189.239 291.469 C 189.771 290.156,192.360 288.865,192.360 289.912 M206.117 289.985 C 207.896 290.824,208.031 291.718,208.031 302.644 C 208.031 314.871,207.440 316.786,204.116 315.315 C 202.290 314.507,202.155 313.631,202.155 302.585 C 202.155 291.863,202.296 290.812,203.845 290.042 C 205.015 289.460,205.006 289.460,206.117 289.985 M229.383 289.912 C 229.516 290.127,230.011 290.308,230.483 290.314 C 231.578 290.328,234.280 292.817,234.280 293.812 C 234.280 294.227,234.456 294.676,234.672 294.809 C 234.911 294.957,235.064 298.005,235.064 302.644 C 235.064 307.284,234.911 310.332,234.672 310.480 C 234.456 310.613,234.280 311.082,234.280 311.522 C 234.280 312.582,232.084 314.675,230.335 315.283 C 228.662 315.864,221.111 315.938,220.764 315.377 C 220.631 315.162,220.174 314.985,219.748 314.985 C 218.702 314.985,216.566 312.759,215.965 311.040 C 215.358 309.307,215.273 295.176,215.867 294.809 C 216.082 294.676,216.259 294.219,216.259 293.793 C 216.259 293.368,216.870 292.409,217.617 291.662 C 218.364 290.915,219.323 290.304,219.748 290.304 C 220.174 290.304,220.631 290.127,220.764 289.912 C 220.900 289.691,222.784 289.520,225.073 289.520 C 227.362 289.520,229.247 289.691,229.383 289.912 M246.033 289.912 C 246.033 290.127,246.386 290.304,246.817 290.304 C 247.339 290.304,247.600 290.565,247.600 291.087 C 247.600 291.518,247.777 291.871,247.992 291.871 C 248.584 291.871,248.516 312.591,247.919 313.855 C 246.885 316.046,244.009 316.053,242.978 313.867 C 242.317 312.467,242.318 292.819,242.979 291.420 C 243.611 290.080,246.033 288.884,246.033 289.912 M270.127 289.912 C 270.260 290.127,270.660 290.304,271.015 290.304 C 271.985 290.304,274.633 293.069,274.633 294.082 C 274.633 294.564,274.809 295.068,275.024 295.201 C 275.263 295.348,275.416 298.339,275.416 302.863 C 275.416 307.549,275.272 310.284,275.024 310.284 C 274.809 310.284,274.633 310.689,274.633 311.184 C 274.633 312.399,272.443 314.542,270.519 315.212 C 268.700 315.845,261.484 315.971,261.117 315.377 C 260.983 315.162,260.526 314.985,260.101 314.985 C 259.099 314.985,256.611 312.498,256.611 311.496 C 256.611 311.070,256.435 310.613,256.219 310.480 C 255.980 310.332,255.828 307.284,255.828 302.644 C 255.828 298.005,255.980 294.957,256.219 294.809 C 256.435 294.676,256.611 294.259,256.611 293.883 C 256.611 292.899,259.118 290.304,260.069 290.304 C 260.512 290.304,260.983 290.127,261.117 289.912 C 261.254 289.690,263.202 289.520,265.622 289.520 C 268.042 289.520,269.990 289.690,270.127 289.912 M286.823 289.985 C 288.601 290.824,288.737 291.718,288.737 302.644 C 288.737 314.927,288.152 316.790,284.767 315.291 C 282.982 314.501,282.860 313.698,282.860 302.704 C 282.860 291.927,283.013 290.817,284.605 290.019 C 285.712 289.463,285.717 289.463,286.823 289.985 M141.193 295.854 C 140.871 296.376,140.656 308.533,140.954 309.403 C 141.342 310.534,148.040 310.033,148.337 308.850 C 148.573 307.908,148.272 296.207,148.006 295.983 C 147.476 295.537,141.459 295.424,141.193 295.854 M168.159 295.726 C 167.779 295.967,167.685 297.670,167.767 302.869 L 167.875 309.696 171.499 309.809 L 175.122 309.922 175.122 302.897 C 175.122 296.853,175.036 295.839,174.503 295.634 C 173.595 295.286,168.742 295.356,168.159 295.726 M221.832 295.726 C 221.452 295.967,221.358 297.670,221.440 302.869 L 221.548 309.696 225.040 309.811 C 227.568 309.893,228.624 309.785,228.860 309.419 C 229.381 308.614,228.863 296.074,228.294 295.713 C 227.661 295.310,222.470 295.321,221.832 295.726 M261.793 302.742 L 261.900 309.696 265.426 309.696 L 268.952 309.696 269.059 302.742 L 269.166 295.788 265.426 295.788 L 261.686 295.788 261.793 302.742 M50.737 320.218 C 57.527 322.027,61.880 326.602,63.303 333.424 C 65.876 345.766,52.498 356.592,40.744 351.679 C 39.463 351.143,34.868 347.935,34.868 347.577 C 34.868 347.424,34.465 346.860,33.973 346.323 C 24.060 335.516,36.345 316.385,50.737 320.218 M354.304 324.540 C 356.880 325.800,359.785 328.645,361.214 331.306 C 361.753 332.309,362.458 333.255,362.782 333.409 C 363.105 333.563,364.210 334.064,365.237 334.522 C 374.371 338.592,375.564 350.926,367.417 357.045 C 364.322 359.369,362.733 359.647,352.538 359.647 L 343.263 359.647 342.248 358.442 C 341.122 357.103,341.032 356.602,341.669 355.203 C 342.423 353.549,343.313 353.396,352.821 353.287 L 361.862 353.183 363.486 352.107 C 368.644 348.692,366.473 339.667,360.494 339.667 C 358.025 339.667,357.083 338.808,356.129 335.682 C 353.524 327.154,342.608 327.353,339.660 335.982 C 338.765 338.600,338.081 339.281,336.360 339.263 C 332.704 339.225,332.311 336.393,335.116 330.293 C 336.252 327.822,340.214 324.812,343.976 323.562 C 346.184 322.828,351.914 323.371,354.304 324.540 M43.638 326.589 C 38.469 328.422,35.625 334.433,37.425 339.717 C 40.324 348.223,52.533 348.817,56.378 340.639 C 60.139 332.638,51.974 323.632,43.638 326.589 M268.895 340.628 C 270.328 341.956,270.340 344.240,268.921 345.573 L 267.910 346.523 233.636 346.627 C 203.012 346.720,199.222 346.665,198.052 346.110 C 196.323 345.290,195.610 343.631,196.285 342.002 C 197.311 339.525,195.071 339.667,233.135 339.667 L 267.858 339.667 268.895 340.628 M289.031 340.548 C 292.179 343.921,289.647 346.719,283.448 346.719 C 277.161 346.719,274.261 343.068,278.300 340.239 C 279.781 339.201,287.995 339.438,289.031 340.548 M328.574 341.694 C 329.364 342.437,329.481 342.921,329.481 345.461 C 329.481 348.155,330.533 351.402,331.414 351.426 C 333.590 351.488,335.085 355.785,333.486 357.383 C 330.117 360.753,322.821 353.277,322.821 346.456 C 322.821 341.763,325.918 339.199,328.574 341.694 M182.773 363.641 C 185.783 365.013,185.673 371.681,182.620 372.945 C 180.115 373.983,178.278 371.954,178.265 368.138 C 178.253 364.261,180.096 362.422,182.773 363.641 M176.828 374.320 C 178.498 375.868,178.218 378.439,176.270 379.446 C 173.074 381.099,168.108 379.386,168.079 376.622 C 168.048 373.571,174.258 371.938,176.828 374.320 M193.678 374.392 C 196.341 377.055,194.237 380.020,189.685 380.020 C 185.610 380.020,183.690 377.229,185.931 374.565 C 187.377 372.846,192.029 372.743,193.678 374.392 M183.164 380.650 C 186.183 382.628,184.964 389.836,181.616 389.801 C 179.285 389.777,178.257 388.220,178.257 384.716 C 178.257 380.979,180.645 378.999,183.164 380.650 " stroke="none" fill="#FFF" fill-rule="evenodd"/><path id="path1" d="M290.839 10.880 C 288.549 12.735,288.445 17.777,290.661 19.478 C 291.849 20.390,293.678 20.077,294.774 18.775 C 297.811 15.166,294.284 8.090,290.839 10.880 M280.371 21.333 C 277.632 23.871,279.573 26.641,284.090 26.641 C 287.570 26.641,288.737 25.840,288.737 23.451 C 288.737 20.394,282.962 18.931,280.371 21.333 M297.217 21.333 C 294.478 23.871,296.419 26.641,300.936 26.641 C 304.359 26.641,305.583 25.829,305.583 23.560 C 305.583 20.504,299.779 18.959,297.217 21.333 M290.839 27.727 C 288.549 29.581,288.445 34.623,290.661 36.324 C 294.260 39.088,297.946 31.601,294.623 28.278 C 293.232 26.886,292.083 26.719,290.839 27.727 M73.919 34.282 C 64.541 36.859,61.067 48.696,67.566 55.925 C 72.131 61.001,80.705 61.833,80.705 57.199 C 80.705 55.824,78.807 54.065,77.325 54.065 C 71.371 54.065,68.124 45.898,72.566 42.095 C 76.958 38.335,84.231 41.170,84.231 46.642 C 84.231 49.710,87.692 51.322,89.696 49.188 C 90.474 48.361,90.574 47.920,90.431 45.956 C 89.849 37.984,81.619 32.165,73.919 34.282 M102.219 57.701 C 100.810 58.783,100.686 59.747,100.686 69.623 C 100.686 79.690,100.796 80.449,102.426 81.581 C 103.433 82.280,105.459 81.869,106.592 80.735 L 107.738 79.590 107.738 71.724 L 107.738 63.857 191.675 63.956 L 275.612 64.055 275.716 76.572 C 275.817 88.788,275.840 89.111,276.665 89.991 L 277.512 90.891 289.980 90.891 L 302.449 90.891 302.449 125.593 L 302.449 160.295 303.594 161.441 C 305.029 162.876,306.685 162.948,308.205 161.640 L 309.305 160.695 309.409 126.337 C 309.471 105.919,309.365 91.442,309.147 90.655 C 308.926 89.853,308.924 89.243,309.141 89.108 C 309.339 88.986,309.500 88.267,309.500 87.511 C 309.500 85.919,308.446 84.765,291.205 67.486 L 280.941 57.199 191.890 57.211 C 122.507 57.221,102.703 57.329,102.219 57.701 M290.108 76.787 L 297.151 83.839 289.810 83.839 L 282.468 83.839 282.468 76.787 C 282.468 72.909,282.602 69.736,282.766 69.736 C 282.930 69.736,286.234 72.909,290.108 76.787 M126.738 88.149 C 126.605 88.364,126.137 88.541,125.697 88.541 C 125.257 88.541,124.298 89.140,123.565 89.873 C 122.833 90.605,122.233 91.565,122.233 92.004 C 122.233 92.444,122.057 92.913,121.841 93.046 C 121.602 93.194,121.450 96.242,121.450 100.881 C 121.450 105.521,121.602 108.569,121.841 108.717 C 122.057 108.850,122.233 109.319,122.233 109.759 C 122.233 110.693,124.620 113.222,125.501 113.222 C 125.833 113.222,126.214 113.399,126.347 113.614 C 126.484 113.836,128.433 114.006,130.852 114.006 C 133.272 114.006,135.220 113.836,135.357 113.614 C 135.491 113.399,136.009 113.222,136.509 113.222 C 139.483 113.222,140.749 109.641,140.802 101.077 C 140.858 92.013,139.981 89.652,136.048 88.282 C 134.316 87.679,127.093 87.576,126.738 88.149 M150.153 88.287 C 148.401 89.156,148.177 90.718,148.290 101.273 C 148.359 107.724,148.552 111.406,148.855 112.060 C 149.387 113.210,151.674 114.419,151.920 113.680 C 152.004 113.429,152.411 113.222,152.824 113.222 C 153.314 113.222,153.575 112.950,153.575 112.439 C 153.575 112.008,153.751 111.655,153.967 111.655 C 154.559 111.655,154.490 90.935,153.894 89.671 C 153.638 89.130,152.986 88.477,152.444 88.222 C 151.332 87.697,151.345 87.696,150.153 88.287 M164.153 88.149 C 164.153 88.364,163.844 88.542,163.467 88.544 C 162.026 88.550,161.802 90.218,161.802 100.941 C 161.802 111.935,161.924 112.738,163.709 113.528 C 167.094 115.027,167.679 113.164,167.679 100.881 C 167.679 90.221,167.453 88.550,166.014 88.544 C 165.637 88.542,165.328 88.364,165.328 88.149 C 165.328 87.933,165.064 87.757,164.740 87.757 C 164.417 87.757,164.153 87.933,164.153 88.149 M177.473 88.103 C 177.473 88.294,177.120 88.541,176.690 88.654 C 176.259 88.767,175.906 89.140,175.906 89.483 C 175.906 89.827,175.730 90.108,175.514 90.108 C 175.263 90.108,175.122 93.960,175.122 100.881 C 175.122 107.803,175.263 111.655,175.514 111.655 C 175.730 111.655,175.906 111.965,175.906 112.343 C 175.906 114.405,179.619 114.215,180.618 112.102 C 181.397 110.455,181.454 91.914,180.685 90.090 C 180.029 88.533,177.473 86.952,177.473 88.103 M194.123 88.149 C 193.990 88.364,193.486 88.541,193.002 88.541 C 190.214 88.541,188.980 91.836,188.652 100.164 C 188.320 108.586,189.784 113.222,192.776 113.222 C 193.168 113.222,193.598 113.399,193.732 113.614 C 193.869 113.836,195.817 114.006,198.237 114.006 C 200.657 114.006,202.605 113.836,202.742 113.614 C 202.876 113.399,203.344 113.222,203.784 113.222 C 204.820 113.222,207.248 110.794,207.248 109.759 C 207.248 109.319,207.424 108.850,207.640 108.717 C 207.879 108.569,208.031 105.521,208.031 100.881 C 208.031 96.242,207.879 93.194,207.640 93.046 C 207.424 92.913,207.248 92.484,207.248 92.093 C 207.248 91.059,204.927 88.789,203.302 88.234 C 201.620 87.661,194.466 87.594,194.123 88.149 M217.826 88.149 C 217.826 88.364,217.473 88.541,217.042 88.541 C 216.520 88.541,216.259 88.802,216.259 89.324 C 216.259 89.755,216.082 90.108,215.867 90.108 C 215.615 90.108,215.475 93.869,215.475 100.607 C 215.475 111.498,215.697 113.213,217.107 113.219 C 217.467 113.221,217.829 113.429,217.913 113.680 C 218.151 114.394,220.440 113.227,220.936 112.140 C 221.495 110.913,221.500 90.861,220.941 89.636 C 220.381 88.408,217.826 87.188,217.826 88.149 M230.863 88.285 C 229.163 89.128,228.985 90.407,229.077 101.119 C 229.125 106.636,229.330 111.589,229.534 112.125 C 229.960 113.246,232.364 114.465,232.622 113.692 C 232.708 113.433,233.116 113.222,233.529 113.222 C 234.019 113.222,234.280 112.950,234.280 112.439 C 234.280 112.008,234.456 111.655,234.672 111.655 C 234.924 111.655,235.064 107.803,235.064 100.881 C 235.064 93.960,234.924 90.108,234.672 90.108 C 234.456 90.108,234.280 89.856,234.280 89.549 C 234.280 89.130,231.984 87.534,231.771 87.805 C 231.751 87.832,231.342 88.048,230.863 88.285 M247.796 88.149 C 247.663 88.364,247.194 88.541,246.755 88.541 C 243.779 88.541,242.507 92.236,242.507 100.881 C 242.507 109.354,243.748 113.222,246.465 113.222 C 246.849 113.222,247.271 113.399,247.405 113.614 C 247.542 113.836,249.490 114.006,251.910 114.006 C 254.329 114.006,256.278 113.836,256.415 113.614 C 256.548 113.399,257.004 113.222,257.428 113.222 C 260.513 113.222,261.706 109.762,261.698 100.836 C 261.691 92.252,260.465 88.541,257.635 88.541 C 257.313 88.541,256.940 88.364,256.807 88.149 C 256.670 87.927,254.721 87.757,252.302 87.757 C 249.882 87.757,247.934 87.927,247.796 88.149 M348.286 91.463 C 344.286 92.603,342.005 93.981,339.079 97.022 C 336.923 99.264,334.574 104.034,334.574 106.170 C 334.574 107.888,333.910 108.975,331.989 110.401 C 323.220 116.908,324.977 131.177,335.162 136.165 L 337.512 137.316 358.276 137.316 C 377.361 137.316,379.179 137.259,380.760 136.612 C 387.732 133.757,391.675 127.268,390.782 120.121 C 389.957 113.520,384.327 114.574,384.438 121.308 C 384.514 125.940,383.080 128.451,379.278 130.344 C 377.539 131.210,343.493 131.657,339.821 130.862 C 331.260 129.010,330.196 118.250,338.170 114.174 C 340.510 112.978,340.529 112.942,340.863 108.912 C 341.593 100.090,349.769 95.015,357.531 98.565 C 360.962 100.134,363.565 99.190,363.565 96.376 C 363.565 94.600,362.621 93.752,358.864 92.151 C 356.255 91.040,350.975 90.696,348.286 91.463 M255.347 93.963 C 255.728 94.204,255.821 95.907,255.739 101.106 L 255.632 107.933 252.106 107.933 L 248.580 107.933 248.473 101.002 L 248.366 94.071 250.040 93.921 C 253.229 93.634,254.850 93.647,255.347 93.963 M134.681 100.979 L 134.574 107.933 131.048 107.933 L 127.522 107.933 127.415 100.979 L 127.308 94.025 131.048 94.025 L 134.788 94.025 134.681 100.979 M202.155 100.874 C 202.155 108.802,202.495 108.261,197.641 108.051 L 194.907 107.933 194.800 100.979 L 194.693 94.025 198.424 94.025 L 202.155 94.025 202.155 100.874 M368.694 99.522 C 365.222 100.998,366.844 106.516,370.481 105.603 C 373.079 104.951,375.437 106.367,376.446 109.187 C 378.327 114.446,383.904 112.525,382.415 107.131 C 380.884 101.587,373.486 97.484,368.694 99.522 M96.180 121.503 C 92.831 123.385,93.259 125.812,97.547 129.248 C 100.839 131.887,100.667 130.082,100.677 162.235 L 100.686 190.679 101.646 191.716 C 103.011 193.188,105.056 193.143,106.592 191.607 L 107.738 190.462 107.738 162.066 L 107.738 133.670 106.799 130.896 C 104.837 125.097,98.989 119.924,96.180 121.503 M126.738 121.841 C 126.605 122.057,126.137 122.233,125.697 122.233 C 125.257 122.233,124.298 122.833,123.565 123.565 C 122.833 124.298,122.233 125.257,122.233 125.697 C 122.233 126.137,122.057 126.605,121.841 126.738 C 121.602 126.886,121.450 129.934,121.450 134.574 C 121.450 139.214,121.602 142.261,121.841 142.409 C 122.057 142.543,122.233 143.011,122.233 143.451 C 122.233 144.487,124.661 146.915,125.697 146.915 C 126.137 146.915,126.605 147.091,126.738 147.307 C 126.875 147.527,128.759 147.698,131.048 147.698 C 133.337 147.698,135.221 147.527,135.357 147.307 C 135.491 147.091,135.995 146.915,136.479 146.915 C 141.959 146.915,142.890 125.072,137.515 122.595 C 136.975 122.345,136.227 121.986,135.853 121.796 C 134.911 121.317,127.038 121.356,126.738 121.841 M150.153 121.980 C 148.401 122.848,148.177 124.411,148.290 134.966 C 148.359 141.417,148.552 145.099,148.855 145.752 C 149.364 146.852,151.547 148.033,151.953 147.428 C 152.091 147.222,152.512 146.940,152.889 146.801 C 153.266 146.661,153.575 146.278,153.575 145.948 C 153.575 145.618,153.751 145.348,153.967 145.348 C 154.559 145.348,154.490 124.627,153.894 123.364 C 153.638 122.822,152.986 122.170,152.444 121.914 C 151.332 121.389,151.345 121.389,150.153 121.980 M163.547 121.948 C 161.956 122.746,161.802 123.859,161.802 134.574 C 161.802 141.716,161.944 145.100,162.273 145.796 C 162.819 146.954,164.995 148.110,165.241 147.373 C 165.325 147.121,165.687 146.913,166.046 146.912 C 167.451 146.905,167.679 145.180,167.679 134.574 C 167.679 123.648,167.544 122.754,165.765 121.914 C 164.659 121.392,164.654 121.393,163.547 121.948 M180.411 121.841 C 180.278 122.057,179.861 122.233,179.485 122.233 C 178.501 122.233,175.906 124.740,175.906 125.691 C 175.906 126.134,175.730 126.605,175.514 126.738 C 175.275 126.886,175.122 129.934,175.122 134.574 C 175.122 139.214,175.275 142.261,175.514 142.409 C 175.730 142.543,175.906 142.959,175.906 143.335 C 175.906 144.320,178.413 146.915,179.364 146.915 C 179.807 146.915,180.278 147.091,180.411 147.307 C 180.548 147.527,182.432 147.698,184.721 147.698 C 187.010 147.698,188.894 147.527,189.030 147.307 C 189.164 147.091,189.685 146.915,190.190 146.915 C 191.393 146.915,193.928 144.381,193.928 143.177 C 193.928 142.672,194.104 142.151,194.319 142.018 C 194.558 141.870,194.711 138.879,194.711 134.355 C 194.711 129.669,194.567 126.934,194.319 126.934 C 194.104 126.934,193.928 126.473,193.928 125.910 C 193.928 124.749,191.478 122.233,190.348 122.233 C 189.972 122.233,189.555 122.057,189.422 121.841 C 189.285 121.619,187.336 121.450,184.917 121.450 C 182.497 121.450,180.549 121.619,180.411 121.841 M203.845 121.971 C 203.375 122.205,202.802 122.809,202.572 123.313 C 201.962 124.651,202.009 144.491,202.625 145.796 C 203.172 146.954,205.348 148.110,205.593 147.373 C 205.677 147.121,206.040 146.913,206.399 146.912 C 207.803 146.905,208.031 145.180,208.031 134.574 C 208.031 123.648,207.896 122.754,206.117 121.914 C 205.006 121.390,205.015 121.390,203.845 121.971 M219.980 121.975 C 218.376 122.578,216.547 124.490,215.961 126.179 C 215.358 127.915,215.276 142.044,215.867 142.409 C 216.082 142.543,216.259 143.000,216.259 143.425 C 216.259 144.453,218.563 146.717,220.006 147.106 C 221.936 147.626,229.245 147.797,229.709 147.333 C 229.939 147.103,230.410 146.915,230.756 146.915 C 231.697 146.915,234.280 144.381,234.280 143.457 C 234.280 143.014,234.456 142.543,234.672 142.409 C 234.911 142.261,235.064 139.214,235.064 134.574 C 235.064 129.934,234.911 126.886,234.672 126.738 C 234.456 126.605,234.276 126.110,234.272 125.638 C 234.241 122.526,224.890 120.129,219.980 121.975 M247.796 121.841 C 247.663 122.057,247.194 122.233,246.755 122.233 C 243.779 122.233,242.507 125.928,242.507 134.574 C 242.507 143.665,243.298 145.848,247.065 147.159 C 248.835 147.775,256.055 147.889,256.415 147.307 C 256.548 147.091,257.009 146.915,257.439 146.915 C 260.473 146.915,261.691 143.400,261.698 134.619 C 261.706 125.885,260.504 122.233,257.624 122.233 C 257.308 122.233,256.940 122.057,256.807 121.841 C 256.670 121.619,254.721 121.450,252.302 121.450 C 249.882 121.450,247.934 121.619,247.796 121.841 M270.893 121.948 C 269.296 122.749,269.148 123.846,269.148 134.848 C 269.148 141.081,269.296 145.348,269.513 145.348 C 269.714 145.348,269.978 145.656,270.100 146.033 C 270.452 147.122,272.092 147.712,273.262 147.172 C 273.801 146.923,274.342 146.410,274.464 146.033 C 274.586 145.656,274.850 145.348,275.051 145.348 C 275.268 145.348,275.416 140.976,275.416 134.574 C 275.416 127.653,275.276 123.800,275.024 123.800 C 274.809 123.800,274.633 123.556,274.633 123.258 C 274.633 121.981,272.391 121.196,270.893 121.948 M284.605 121.948 C 283.014 122.746,282.860 123.859,282.860 134.574 C 282.860 141.716,283.002 145.100,283.330 145.796 C 283.877 146.954,286.053 148.110,286.298 147.373 C 286.382 147.121,286.789 146.915,287.202 146.915 C 287.692 146.915,287.953 146.642,287.953 146.131 C 287.953 145.700,288.129 145.348,288.345 145.348 C 288.937 145.348,288.868 124.627,288.272 123.364 C 288.016 122.822,287.364 122.170,286.823 121.914 C 285.717 121.392,285.712 121.393,284.605 121.948 M134.681 134.429 L 134.788 141.336 131.857 141.611 C 127.046 142.062,127.326 142.494,127.326 134.613 C 127.326 126.685,127.010 127.269,131.225 127.410 L 134.574 127.522 134.681 134.429 M188.655 128.160 C 188.800 128.619,188.792 131.779,188.638 135.184 L 188.356 141.375 185.034 141.500 C 182.692 141.589,181.591 141.479,181.301 141.127 C 180.849 140.580,181.079 128.539,181.557 127.766 C 182.117 126.861,188.352 127.206,188.655 128.160 M228.972 134.064 C 229.308 142.000,229.394 141.822,225.227 141.822 C 221.079 141.822,221.352 142.330,221.352 134.597 C 221.352 126.687,221.006 127.326,225.280 127.326 L 228.687 127.326 228.972 134.064 M255.739 134.476 L 255.846 141.430 252.115 141.430 L 248.384 141.430 248.384 134.607 C 248.384 126.776,248.059 127.342,252.498 127.448 L 255.632 127.522 255.739 134.476 M123.194 155.641 C 121.598 156.441,121.450 157.538,121.450 168.540 C 121.450 175.279,121.590 179.040,121.841 179.040 C 122.057 179.040,122.233 179.321,122.233 179.664 C 122.233 180.008,122.586 180.381,123.017 180.494 C 123.448 180.606,123.800 180.854,123.800 181.045 C 123.800 181.235,124.065 181.391,124.388 181.391 C 124.711 181.391,124.976 181.235,124.976 181.045 C 124.976 180.854,125.328 180.606,125.759 180.494 C 126.190 180.381,126.543 180.008,126.543 179.664 C 126.543 179.321,126.719 179.040,126.934 179.040 C 127.526 179.040,127.458 158.319,126.861 157.056 C 126.606 156.514,125.954 155.862,125.412 155.607 C 124.307 155.085,124.301 155.085,123.194 155.641 M136.515 155.641 C 134.256 156.774,133.780 180.187,136.015 180.212 C 136.161 180.214,136.569 180.504,136.921 180.856 C 137.695 181.630,139.186 181.015,140.168 179.516 C 140.988 178.264,141.068 158.614,140.259 157.101 C 139.270 155.252,138.155 154.817,136.515 155.641 M152.099 155.992 C 148.529 157.723,148.039 159.529,148.419 169.568 L 148.720 177.530 150.266 179.050 C 151.116 179.885,152.198 180.577,152.670 180.588 C 153.142 180.599,153.638 180.784,153.771 180.999 C 153.907 181.219,155.791 181.391,158.080 181.391 C 160.369 181.391,162.254 181.219,162.390 180.999 C 162.523 180.784,162.992 180.607,163.432 180.607 C 166.440 180.607,167.679 176.929,167.679 167.993 C 167.679 159.214,166.512 155.926,163.396 155.926 C 162.976 155.926,162.523 155.749,162.390 155.534 C 161.902 154.745,153.939 155.099,152.099 155.992 M176.787 155.675 C 176.303 155.915,175.906 156.422,175.906 156.802 C 175.906 157.182,175.730 157.493,175.514 157.493 C 174.796 157.493,175.005 177.902,175.739 179.372 C 176.078 180.051,176.592 180.607,176.881 180.607 C 177.171 180.607,177.476 180.813,177.560 181.065 C 177.805 181.800,180.090 180.599,180.642 179.445 C 180.969 178.763,181.141 175.383,181.193 168.658 C 181.277 157.898,181.061 156.521,179.152 155.632 C 177.966 155.079,177.991 155.079,176.787 155.675 M190.511 155.670 C 189.006 156.416,188.828 157.676,188.732 168.283 C 188.630 179.404,188.693 179.770,190.911 180.957 C 191.790 181.428,192.001 181.415,192.559 180.856 C 192.912 180.504,193.320 180.214,193.466 180.212 C 193.612 180.211,193.952 179.735,194.221 179.155 C 194.840 177.823,194.932 157.493,194.319 157.493 C 194.104 157.493,193.926 157.184,193.924 156.807 C 193.923 156.430,193.447 155.901,192.867 155.632 C 191.679 155.080,191.701 155.080,190.511 155.670 M206.464 155.726 C 202.839 157.022,202.155 159.036,202.155 168.408 C 202.155 176.902,203.440 180.607,206.386 180.607 C 206.834 180.607,207.311 180.784,207.444 180.999 C 207.580 181.219,209.464 181.391,211.753 181.391 C 214.042 181.391,215.926 181.219,216.063 180.999 C 216.196 180.784,216.672 180.607,217.121 180.607 C 220.082 180.607,221.352 176.910,221.352 168.288 C 221.352 158.514,220.823 157.086,216.668 155.638 C 214.903 155.023,208.270 155.080,206.464 155.726 M230.863 155.670 C 229.163 156.514,228.985 157.792,229.083 168.462 C 229.194 180.571,229.836 182.556,233.043 180.715 C 234.944 179.624,235.064 178.876,235.064 168.071 C 235.064 157.352,234.924 156.444,233.150 155.607 C 232.037 155.082,232.050 155.081,230.863 155.670 M244.252 155.641 C 242.656 156.441,242.507 157.539,242.516 168.442 C 242.525 179.567,242.498 179.398,244.552 180.956 C 245.461 181.646,247.268 180.857,247.914 179.489 C 248.569 178.101,248.574 158.442,247.919 157.056 C 247.664 156.514,247.012 155.862,246.470 155.607 C 245.364 155.085,245.359 155.085,244.252 155.641 M257.572 155.641 C 254.903 156.979,254.948 180.607,257.619 180.607 C 257.927 180.607,258.178 180.784,258.178 180.999 C 258.178 181.769,259.313 181.371,260.499 180.185 L 261.704 178.980 261.704 168.451 C 261.704 157.262,261.587 156.453,259.845 155.632 C 258.681 155.083,258.683 155.083,257.572 155.641 M273.867 155.724 C 271.785 156.476,269.931 158.276,269.931 159.546 C 269.931 160.140,269.755 160.627,269.540 160.627 C 269.292 160.627,269.148 163.427,269.148 168.243 C 269.148 172.898,269.300 175.954,269.540 176.102 C 269.755 176.235,269.931 176.658,269.931 177.041 C 269.931 177.958,272.813 180.607,273.809 180.607 C 274.237 180.607,274.695 180.784,274.829 180.999 C 274.965 181.220,276.857 181.391,279.161 181.391 C 281.627 181.391,283.252 181.235,283.252 180.999 C 283.252 180.784,283.657 180.607,284.152 180.607 C 285.367 180.607,287.510 178.418,288.180 176.493 C 288.837 174.604,288.979 160.823,288.345 160.431 C 288.129 160.298,287.953 159.779,287.953 159.279 C 287.953 158.124,285.737 155.926,284.572 155.926 C 284.087 155.926,283.581 155.749,283.448 155.534 C 283.105 154.979,275.511 155.130,273.867 155.724 M161.802 168.071 L 161.802 175.122 158.080 175.122 L 154.358 175.122 154.358 168.071 L 154.358 161.019 158.080 161.019 L 161.802 161.019 161.802 168.071 M215.386 168.168 L 215.493 175.122 211.762 175.122 L 208.031 175.122 208.031 168.056 L 208.031 160.989 211.655 161.102 L 215.279 161.214 215.386 168.168 M282.771 168.168 L 282.878 175.122 279.147 175.122 L 275.416 175.122 275.416 168.056 L 275.416 160.989 279.040 161.102 L 282.664 161.214 282.771 168.168 M50.147 172.093 C 48.722 172.774,48.215 173.571,48.201 175.152 C 48.178 177.629,49.285 178.236,53.741 178.188 C 63.251 178.085,69.181 183.720,69.564 193.225 C 69.689 196.336,69.963 196.779,72.432 197.870 C 81.044 201.674,81.148 213.737,72.602 217.646 L 70.496 218.609 48.078 218.603 C 31.305 218.599,25.316 218.476,24.290 218.114 C 19.326 216.362,16.846 212.804,16.846 207.434 C 16.846 205.849,17.023 204.443,17.238 204.310 C 17.453 204.176,17.630 203.757,17.630 203.377 C 17.630 202.266,20.306 199.457,22.594 198.165 C 25.208 196.690,26.138 195.160,25.442 193.481 C 24.474 191.143,22.312 190.974,18.978 192.973 C 5.273 201.191,8.652 221.177,24.365 224.841 C 27.297 225.524,69.100 225.425,71.773 224.728 C 86.505 220.888,90.455 202.397,78.364 193.871 C 76.100 192.274,76.039 192.183,75.798 190.045 C 74.879 181.902,68.619 174.493,60.776 172.264 C 58.632 171.655,51.310 171.537,50.147 172.093 M39.011 179.502 C 38.596 179.742,37.880 180.378,37.419 180.914 C 36.708 181.739,36.454 181.820,35.750 181.444 C 33.595 180.290,27.954 181.236,27.064 182.899 C 25.562 185.706,27.381 187.653,31.403 187.542 C 33.837 187.475,34.471 187.599,35.516 188.345 C 38.263 190.304,40.137 189.554,42.276 185.640 C 44.590 181.406,42.500 177.477,39.011 179.502 M125.823 189.402 C 122.270 190.689,121.448 193.022,121.455 201.791 C 121.465 213.349,123.361 215.627,132.250 214.761 C 138.846 214.118,140.031 212.972,140.707 206.585 C 141.766 196.582,140.268 190.703,136.309 189.322 C 134.553 188.710,127.586 188.763,125.823 189.402 M150.203 189.288 C 148.371 190.175,148.183 191.444,148.279 202.242 C 148.386 214.199,148.907 215.752,152.331 214.326 C 154.208 213.544,154.358 212.612,154.358 201.763 C 154.358 191.088,154.200 190.029,152.479 189.245 C 151.418 188.761,151.284 188.764,150.203 189.288 M163.547 189.333 C 161.954 190.132,161.802 191.240,161.802 202.051 C 161.802 213.225,161.928 213.951,163.955 214.460 C 167.215 215.278,167.679 213.698,167.679 201.763 C 167.679 191.044,167.539 190.137,165.765 189.299 C 164.659 188.777,164.654 188.777,163.547 189.333 M179.628 189.360 C 178.046 189.954,175.906 192.094,175.906 193.082 C 175.906 193.521,175.730 193.990,175.514 194.123 C 174.925 194.488,175.008 208.069,175.612 210.011 C 175.881 210.878,176.770 212.241,177.588 213.039 L 179.073 214.491 183.590 214.634 C 190.067 214.840,193.928 213.265,193.928 210.416 C 193.928 209.992,194.104 209.536,194.319 209.403 C 194.558 209.255,194.711 206.272,194.711 201.763 C 194.711 197.254,194.558 194.271,194.319 194.123 C 194.104 193.990,193.928 193.521,193.928 193.082 C 193.928 189.855,184.700 187.453,179.628 189.360 M203.688 189.337 C 202.272 190.424,202.155 191.367,202.155 201.719 C 202.155 212.670,202.290 213.544,204.100 214.294 C 207.459 215.685,208.031 213.860,208.031 201.763 C 208.031 191.088,207.872 190.029,206.152 189.245 C 205.005 188.722,204.462 188.742,203.688 189.337 M217.220 189.333 C 215.623 190.134,215.475 191.231,215.475 202.233 C 215.475 208.972,215.615 212.733,215.867 212.733 C 216.082 212.733,216.259 212.976,216.259 213.273 C 216.259 214.184,218.375 214.844,219.455 214.269 C 221.304 213.284,221.326 213.136,221.339 201.718 L 221.352 190.900 220.319 189.867 C 219.236 188.784,218.550 188.666,217.220 189.333 M230.880 189.300 C 229.169 190.127,228.985 191.466,229.086 202.316 C 229.186 213.130,229.321 213.916,231.164 214.501 C 232.340 214.875,234.002 214.065,234.574 212.841 C 235.246 211.402,235.268 192.166,234.599 190.748 C 233.866 189.196,232.332 188.598,230.880 189.300 M246.899 189.396 C 243.278 190.710,242.519 192.853,242.519 201.763 C 242.519 213.495,243.803 215.014,253.392 214.629 C 260.666 214.337,261.456 213.139,261.628 202.155 C 261.769 193.110,260.691 189.618,257.756 189.618 C 257.367 189.618,256.940 189.442,256.807 189.226 C 256.470 188.681,248.492 188.818,246.899 189.396 M270.911 189.270 C 269.311 190.050,269.148 191.225,269.148 201.996 L 269.148 212.258 270.285 213.475 C 270.910 214.144,271.809 214.691,272.282 214.691 C 272.756 214.691,273.655 214.144,274.280 213.475 L 275.416 212.258 275.416 201.722 C 275.416 194.958,275.276 191.185,275.024 191.185 C 274.809 191.185,274.633 190.941,274.633 190.643 C 274.633 189.397,272.366 188.560,270.911 189.270 M284.570 189.293 C 283.004 190.051,282.859 191.137,282.872 202.075 C 282.886 213.113,282.912 213.286,284.756 214.269 C 285.973 214.917,287.585 214.257,288.247 212.841 C 288.895 211.454,288.943 192.066,288.302 190.659 C 287.613 189.149,286.050 188.576,284.570 189.293 M134.770 201.763 L 134.770 208.815 131.048 208.815 L 127.326 208.815 127.326 201.763 L 127.326 194.711 131.048 194.711 L 134.770 194.711 134.770 201.763 M188.649 195.527 C 188.791 195.975,188.781 199.149,188.625 202.579 L 188.342 208.815 184.909 208.815 C 182.139 208.815,181.429 208.695,181.237 208.195 C 180.923 207.377,180.932 200.168,181.251 197.119 L 181.502 194.711 184.946 194.711 C 188.091 194.711,188.412 194.782,188.649 195.527 M255.828 201.763 L 255.828 208.815 252.106 208.815 L 248.384 208.815 248.384 202.024 C 248.384 194.060,248.029 194.711,252.367 194.711 L 255.828 194.711 255.828 201.763 M101.831 200.558 C 100.427 201.961,100.061 209.707,101.313 211.495 C 102.716 213.499,105.745 213.450,106.993 211.402 C 108.033 209.697,108.069 202.389,107.043 201.123 C 105.433 199.136,103.466 198.922,101.831 200.558 M314.423 205.492 C 310.720 207.454,306.196 212.976,304.386 217.744 C 302.390 223.002,302.449 221.032,302.449 282.370 L 302.449 339.667 300.784 339.676 C 296.619 339.697,295.405 344.887,299.217 346.376 C 301.559 347.291,307.175 346.566,308.405 345.190 L 309.500 343.964 309.505 284.323 C 309.510 219.529,309.395 222.979,311.698 218.431 C 312.675 216.502,313.993 215.010,318.175 211.098 C 321.100 208.361,317.934 203.632,314.423 205.492 M102.688 219.939 C 100.611 221.091,100.714 217.787,100.699 283.292 L 100.686 344.254 101.614 345.256 C 103.010 346.762,103.252 346.769,146.981 346.641 L 187.204 346.523 188.215 345.573 C 189.594 344.278,189.617 341.981,188.265 340.629 L 187.303 339.667 147.520 339.667 L 107.738 339.667 107.738 281.059 C 107.738 216.090,107.933 220.829,105.213 219.846 C 103.710 219.302,103.847 219.297,102.688 219.939 M354.561 222.015 C 352.086 223.063,352.163 225.777,354.742 228.396 C 358.087 231.791,361.494 230.856,361.260 226.605 C 361.135 224.343,356.525 221.184,354.561 222.015 M369.050 222.002 C 365.845 223.235,363.728 227.783,365.524 229.579 C 367.742 231.797,373.146 228.463,373.146 224.877 C 373.146 222.652,371.098 221.215,369.050 222.002 M166.857 222.770 C 162.651 224.060,161.814 226.166,161.814 235.455 C 161.814 246.914,163.213 248.642,172.236 248.324 C 179.853 248.056,180.661 246.932,181.064 236.043 L 181.339 228.599 180.297 226.493 C 178.378 222.619,172.582 221.013,166.857 222.770 M123.213 222.962 C 121.617 223.740,121.450 224.930,121.450 235.455 C 121.450 246.267,121.604 247.238,123.442 248.004 C 126.746 249.380,127.326 247.505,127.326 235.455 C 127.326 224.780,127.167 223.722,125.447 222.937 C 124.391 222.456,124.247 222.458,123.213 222.962 M139.263 222.943 C 137.672 223.406,135.553 225.531,135.553 226.664 C 135.553 227.164,135.377 227.683,135.162 227.816 C 134.922 227.964,134.770 231.012,134.770 235.651 C 134.770 240.291,134.922 243.339,135.162 243.487 C 135.377 243.620,135.553 244.001,135.553 244.333 C 135.553 244.665,136.126 245.493,136.827 246.174 C 140.919 250.153,153.575 248.613,153.575 244.137 C 153.575 243.697,153.751 243.228,153.967 243.095 C 154.205 242.947,154.358 239.964,154.358 235.455 C 154.358 230.946,154.205 227.963,153.967 227.816 C 153.751 227.683,153.575 227.158,153.575 226.651 C 153.575 223.509,144.976 221.281,139.263 222.943 M189.861 223.424 C 188.462 224.823,188.006 243.070,189.285 246.472 C 190.054 248.517,193.928 248.725,193.928 246.721 C 193.928 246.343,194.104 246.033,194.319 246.033 C 194.932 246.033,194.840 225.699,194.221 224.387 C 193.320 222.475,191.264 222.021,189.861 223.424 M206.744 222.790 C 205.244 223.042,203.235 225.179,202.644 227.149 C 202.041 229.164,201.957 243.122,202.547 243.487 C 202.762 243.620,202.938 244.037,202.938 244.412 C 202.938 248.558,215.732 250.048,219.371 246.326 C 221.591 244.055,222.294 229.685,220.372 225.868 C 218.953 223.049,213.082 221.722,206.744 222.790 M230.322 223.264 C 227.820 225.291,228.548 247.363,231.144 248.187 C 232.233 248.533,234.280 247.576,234.280 246.721 C 234.280 246.343,234.456 246.033,234.672 246.033 C 234.924 246.033,235.064 242.181,235.064 235.260 C 235.064 228.338,234.924 224.486,234.672 224.486 C 234.456 224.486,234.280 224.250,234.280 223.961 C 234.280 222.673,231.629 222.206,230.322 223.264 M244.217 222.985 C 242.659 223.739,242.507 224.847,242.507 235.455 C 242.507 246.152,242.646 247.123,244.294 248.005 C 245.498 248.649,247.322 247.934,247.941 246.576 C 248.590 245.153,248.549 225.775,247.894 224.387 C 247.147 222.800,245.721 222.257,244.217 222.985 M260.463 222.891 C 259.066 223.338,257.422 224.565,257.407 225.171 C 257.400 225.441,257.218 225.661,257.003 225.661 C 256.787 225.661,256.611 226.091,256.611 226.617 C 256.611 227.143,256.435 227.683,256.219 227.816 C 255.981 227.963,255.828 230.946,255.828 235.455 C 255.828 239.964,255.981 242.947,256.219 243.095 C 256.435 243.228,256.611 243.697,256.611 244.137 C 256.611 248.726,269.188 250.173,273.474 246.077 C 274.111 245.468,274.633 244.602,274.633 244.153 C 274.633 243.704,274.809 243.228,275.024 243.095 C 275.263 242.947,275.416 239.964,275.416 235.455 C 275.416 230.946,275.263 227.963,275.024 227.816 C 274.809 227.683,274.624 227.187,274.613 226.715 C 274.603 226.243,273.902 225.152,273.055 224.290 L 271.515 222.723 266.512 222.640 C 263.760 222.594,261.038 222.707,260.463 222.891 M284.570 222.985 C 283.004 223.743,282.859 224.829,282.872 235.768 C 282.886 246.806,282.912 246.978,284.756 247.961 C 285.973 248.609,287.585 247.950,288.247 246.534 C 289.006 244.909,288.935 225.614,288.165 224.124 C 287.412 222.670,286.088 222.250,284.570 222.985 M148.229 231.401 C 148.548 235.181,148.557 241.073,148.244 241.888 C 147.935 242.692,141.228 242.812,140.951 242.018 C 140.817 241.633,140.864 229.952,141.005 228.697 C 141.023 228.536,142.599 228.404,144.507 228.404 L 147.975 228.404 148.229 231.401 M175.122 235.470 L 175.122 242.537 171.499 242.424 L 167.875 242.311 167.768 235.357 L 167.661 228.404 171.392 228.404 L 175.122 228.404 175.122 235.470 M215.475 235.455 L 215.475 242.507 211.753 242.507 L 208.031 242.507 208.031 235.455 L 208.031 228.404 211.753 228.404 L 215.475 228.404 215.475 235.455 M269.148 235.470 L 269.148 242.537 265.524 242.424 L 261.900 242.311 261.792 235.862 C 261.656 227.767,261.331 228.404,265.610 228.404 L 269.148 228.404 269.148 235.470 M357.459 233.802 C 355.870 234.043,352.909 237.543,352.909 239.180 C 352.909 242.760,356.279 243.319,359.349 240.250 C 362.687 236.912,361.591 233.174,357.459 233.802 M366.801 233.810 C 366.318 233.882,365.657 234.322,365.332 234.786 C 362.856 238.321,369.399 244.565,372.417 241.547 C 374.973 238.991,370.777 233.211,366.801 233.810 M126.934 256.219 C 126.934 256.435,126.509 256.611,125.988 256.611 C 124.744 256.611,122.692 258.729,122.003 260.725 C 121.349 262.618,121.210 276.398,121.841 276.787 C 122.057 276.921,122.233 277.389,122.233 277.829 C 122.233 278.763,124.620 281.293,125.501 281.293 C 125.833 281.293,126.214 281.469,126.347 281.685 C 127.267 283.174,136.887 281.787,138.783 279.891 C 141.992 276.682,141.669 260.574,138.336 257.613 C 136.589 256.060,126.934 254.881,126.934 256.219 M149.699 256.964 C 149.029 257.589,148.452 258.427,148.416 258.825 C 148.209 261.114,148.331 279.725,148.553 279.726 C 148.701 279.726,148.919 280.034,149.039 280.412 C 149.608 282.205,153.564 282.205,153.572 280.411 C 153.574 280.034,153.751 279.726,153.967 279.726 C 154.218 279.726,154.358 276.024,154.358 269.404 C 154.358 258.658,154.072 256.611,152.567 256.611 C 152.259 256.611,152.008 256.435,152.008 256.219 C 152.008 255.477,150.912 255.830,149.699 256.964 M164.153 256.174 C 164.153 256.364,163.800 256.612,163.369 256.725 C 162.938 256.837,162.586 257.211,162.586 257.554 C 162.586 257.897,162.409 258.178,162.194 258.178 C 161.627 258.178,161.668 279.003,162.237 280.252 C 163.216 282.400,166.180 282.354,167.208 280.174 C 168.772 276.860,167.623 256.611,165.871 256.611 C 165.572 256.611,165.328 256.435,165.328 256.219 C 165.328 256.004,165.064 255.828,164.740 255.828 C 164.417 255.828,164.153 255.983,164.153 256.174 M180.803 256.219 C 180.670 256.435,180.166 256.611,179.684 256.611 C 178.571 256.611,175.906 259.301,175.906 260.424 C 175.906 260.887,175.730 261.375,175.514 261.508 C 175.275 261.656,175.122 264.639,175.122 269.148 C 175.122 273.657,175.275 276.640,175.514 276.787 C 175.730 276.921,175.906 277.389,175.906 277.829 C 175.906 278.889,178.102 280.983,179.852 281.590 C 181.524 282.171,189.075 282.246,189.422 281.685 C 189.555 281.469,190.012 281.293,190.438 281.293 C 191.440 281.293,193.928 278.805,193.928 277.803 C 193.928 277.378,194.104 276.921,194.319 276.787 C 194.558 276.640,194.711 273.657,194.711 269.148 C 194.711 264.639,194.558 261.656,194.319 261.508 C 194.104 261.375,193.928 260.872,193.928 260.389 C 193.928 259.376,191.280 256.611,190.310 256.611 C 189.955 256.611,189.555 256.435,189.422 256.219 C 189.286 255.999,187.402 255.828,185.113 255.828 C 182.824 255.828,180.939 255.999,180.803 256.219 M203.845 256.349 C 203.375 256.583,202.802 257.187,202.572 257.691 C 201.962 259.029,202.009 278.869,202.625 280.174 C 203.657 282.361,206.533 282.354,207.567 280.162 C 208.163 278.899,208.232 258.178,207.640 258.178 C 207.424 258.178,207.248 257.934,207.248 257.636 C 207.248 257.092,205.586 255.785,205.009 255.876 C 204.840 255.902,204.316 256.115,203.845 256.349 M217.826 256.193 C 217.826 256.394,217.517 256.658,217.140 256.780 C 215.674 257.254,215.475 258.734,215.475 269.148 C 215.475 281.211,216.111 283.180,219.494 281.586 C 221.231 280.767,221.352 279.945,221.352 268.952 C 221.352 262.578,221.194 258.261,220.941 257.707 C 220.392 256.501,217.826 255.255,217.826 256.193 M230.573 256.760 C 229.524 257.600,229.385 257.986,229.128 260.774 C 228.793 264.425,229.158 279.656,229.602 280.525 C 230.520 282.322,234.280 282.233,234.280 280.414 C 234.280 280.035,234.456 279.726,234.672 279.726 C 234.924 279.726,235.064 275.873,235.064 268.952 C 235.064 262.031,234.924 258.178,234.672 258.178 C 234.456 258.178,234.280 257.942,234.280 257.653 C 234.280 257.365,233.795 256.886,233.203 256.589 C 232.610 256.292,232.037 256.000,231.929 255.940 C 231.822 255.881,231.211 256.250,230.573 256.760 M247.992 256.219 C 247.992 256.435,247.506 256.611,246.911 256.611 C 243.811 256.611,242.519 260.299,242.519 269.148 C 242.519 280.248,243.845 282.083,251.860 282.070 C 260.438 282.057,261.704 280.357,261.704 268.856 C 261.704 260.314,260.425 256.611,257.473 256.611 C 257.025 256.611,256.548 256.435,256.415 256.219 C 256.279 255.999,254.387 255.828,252.083 255.828 C 249.617 255.828,247.992 255.983,247.992 256.219 M271.499 256.174 C 271.499 256.364,271.146 256.612,270.715 256.725 C 270.284 256.837,269.931 257.211,269.931 257.554 C 269.931 257.897,269.755 258.178,269.540 258.178 C 269.288 258.178,269.148 262.031,269.148 268.952 C 269.148 275.873,269.288 279.726,269.540 279.726 C 269.755 279.726,269.931 280.007,269.931 280.350 C 269.931 280.693,270.284 281.067,270.715 281.179 C 271.146 281.292,271.499 281.540,271.499 281.730 C 271.499 281.921,271.769 282.076,272.100 282.076 C 272.981 282.076,274.633 280.897,274.633 280.268 C 274.633 279.970,274.809 279.726,275.024 279.726 C 275.276 279.726,275.416 275.955,275.416 269.197 L 275.416 258.669 274.115 257.248 C 272.914 255.937,271.499 255.356,271.499 256.174 M285.211 256.219 C 285.211 256.435,284.966 256.611,284.668 256.611 C 283.078 256.611,282.860 258.093,282.860 268.920 C 282.860 280.011,282.980 280.808,284.767 281.599 C 288.152 283.097,288.737 281.234,288.737 268.952 C 288.737 258.291,288.511 256.621,287.071 256.614 C 286.694 256.613,286.386 256.435,286.386 256.219 C 286.386 256.004,286.121 255.828,285.798 255.828 C 285.475 255.828,285.211 256.004,285.211 256.219 M134.681 269.050 L 134.574 276.004 130.950 276.117 L 127.326 276.229 127.326 269.163 L 127.326 262.096 131.057 262.096 L 134.788 262.096 134.681 269.050 M188.649 262.912 C 188.791 263.360,188.781 266.534,188.625 269.964 L 188.342 276.200 184.909 276.200 C 182.139 276.200,181.429 276.080,181.237 275.580 C 180.923 274.762,180.932 267.553,181.251 264.504 L 181.502 262.096 184.946 262.096 C 188.091 262.096,188.412 262.167,188.649 262.912 M255.828 269.148 L 255.828 276.200 252.106 276.200 L 248.384 276.200 248.384 269.148 L 248.384 262.096 252.106 262.096 L 255.828 262.096 255.828 269.148 M123.800 289.912 C 123.800 290.127,123.492 290.305,123.115 290.307 C 121.675 290.313,121.450 291.984,121.450 302.644 C 121.450 313.628,121.586 314.507,123.411 315.315 C 126.734 316.786,127.326 314.871,127.326 302.644 C 127.326 291.984,127.101 290.313,125.661 290.307 C 125.284 290.305,124.976 290.127,124.976 289.912 C 124.976 289.696,124.711 289.520,124.388 289.520 C 124.065 289.520,123.800 289.696,123.800 289.912 M140.451 289.912 C 140.317 290.127,139.760 290.304,139.213 290.304 C 137.887 290.304,135.553 292.638,135.553 293.963 C 135.553 294.511,135.377 295.068,135.162 295.201 C 134.923 295.348,134.770 298.331,134.770 302.840 C 134.770 307.349,134.923 310.332,135.162 310.480 C 135.377 310.613,135.553 311.085,135.553 311.528 C 135.553 312.479,138.148 314.985,139.133 314.985 C 139.509 314.985,139.926 315.162,140.059 315.377 C 140.196 315.599,142.145 315.769,144.564 315.769 C 146.984 315.769,148.932 315.599,149.070 315.377 C 149.203 315.162,149.619 314.985,149.996 314.985 C 150.980 314.985,153.575 312.479,153.575 311.528 C 153.575 311.085,153.751 310.613,153.967 310.480 C 154.205 310.332,154.358 307.349,154.358 302.840 C 154.358 298.331,154.205 295.348,153.967 295.201 C 153.751 295.068,153.575 294.534,153.575 294.015 C 153.575 292.771,151.108 290.304,149.863 290.304 C 149.344 290.304,148.811 290.127,148.678 289.912 C 148.543 289.693,146.723 289.520,144.564 289.520 C 142.406 289.520,140.586 289.693,140.451 289.912 M167.091 289.912 C 166.958 290.127,166.501 290.304,166.075 290.304 C 165.073 290.304,162.586 292.791,162.586 293.793 C 162.586 294.219,162.409 294.676,162.194 294.809 C 161.955 294.957,161.802 298.005,161.802 302.644 C 161.802 307.284,161.955 310.332,162.194 310.480 C 162.409 310.613,162.586 311.119,162.586 311.604 C 162.586 312.769,164.784 314.985,165.939 314.985 C 166.440 314.985,166.958 315.162,167.091 315.377 C 167.227 315.598,169.112 315.769,171.401 315.769 C 173.690 315.769,175.574 315.598,175.710 315.377 C 175.843 315.162,176.369 314.985,176.878 314.985 C 178.194 314.985,180.023 312.987,180.527 310.998 C 181.236 308.206,181.432 295.598,180.781 294.739 C 180.484 294.346,180.235 293.787,180.228 293.497 C 180.208 292.665,177.638 290.304,176.752 290.304 C 176.312 290.304,175.843 290.127,175.710 289.912 C 175.574 289.691,173.690 289.520,171.401 289.520 C 169.112 289.520,167.227 289.691,167.091 289.912 M190.511 290.048 C 190.032 290.286,189.460 290.925,189.239 291.469 C 188.610 293.020,188.523 312.165,189.138 313.621 C 189.684 314.914,192.001 316.260,192.273 315.443 C 192.357 315.191,192.764 314.985,193.177 314.985 C 193.666 314.985,193.928 314.713,193.928 314.202 C 193.928 313.771,194.104 313.418,194.319 313.418 C 194.571 313.418,194.711 309.566,194.711 302.644 C 194.711 296.671,194.557 291.871,194.365 291.871 C 194.175 291.871,193.927 291.518,193.814 291.087 C 193.701 290.656,193.328 290.304,192.985 290.304 C 192.641 290.304,192.360 290.127,192.360 289.912 C 192.360 289.428,191.657 289.480,190.511 290.048 M203.845 290.042 C 202.296 290.812,202.155 291.863,202.155 302.585 C 202.155 313.631,202.290 314.507,204.116 315.315 C 207.440 316.786,208.031 314.871,208.031 302.644 C 208.031 291.718,207.896 290.824,206.117 289.985 C 205.006 289.460,205.015 289.460,203.845 290.042 M220.764 289.912 C 220.631 290.127,220.174 290.304,219.748 290.304 C 219.323 290.304,218.364 290.915,217.617 291.662 C 216.870 292.409,216.259 293.368,216.259 293.793 C 216.259 294.219,216.082 294.676,215.867 294.809 C 215.273 295.176,215.358 309.307,215.965 311.040 C 216.566 312.759,218.702 314.985,219.748 314.985 C 220.174 314.985,220.631 315.162,220.764 315.377 C 221.111 315.938,228.662 315.864,230.335 315.283 C 232.084 314.675,234.280 312.582,234.280 311.522 C 234.280 311.082,234.456 310.613,234.672 310.480 C 234.911 310.332,235.064 307.284,235.064 302.644 C 235.064 298.005,234.911 294.957,234.672 294.809 C 234.456 294.676,234.280 294.227,234.280 293.812 C 234.280 292.817,231.578 290.328,230.483 290.314 C 230.011 290.308,229.516 290.127,229.383 289.912 C 229.247 289.691,227.362 289.520,225.073 289.520 C 222.784 289.520,220.900 289.691,220.764 289.912 M244.252 290.019 C 242.661 290.817,242.507 291.930,242.507 302.644 C 242.507 313.628,242.644 314.507,244.469 315.315 C 245.765 315.889,247.257 315.258,247.919 313.855 C 248.516 312.591,248.584 291.871,247.992 291.871 C 247.777 291.871,247.600 291.518,247.600 291.087 C 247.600 290.565,247.339 290.304,246.817 290.304 C 246.386 290.304,246.033 290.127,246.033 289.912 C 246.033 289.436,245.330 289.478,244.252 290.019 M261.117 289.912 C 260.983 290.127,260.512 290.304,260.069 290.304 C 259.118 290.304,256.611 292.899,256.611 293.883 C 256.611 294.259,256.435 294.676,256.219 294.809 C 255.980 294.957,255.828 298.005,255.828 302.644 C 255.828 307.284,255.980 310.332,256.219 310.480 C 256.435 310.613,256.611 311.070,256.611 311.496 C 256.611 312.498,259.099 314.985,260.101 314.985 C 260.526 314.985,260.983 315.162,261.117 315.377 C 261.484 315.971,268.700 315.845,270.519 315.212 C 272.443 314.542,274.633 312.399,274.633 311.184 C 274.633 310.689,274.809 310.284,275.024 310.284 C 275.272 310.284,275.416 307.549,275.416 302.863 C 275.416 298.339,275.263 295.348,275.024 295.201 C 274.809 295.068,274.633 294.564,274.633 294.082 C 274.633 293.069,271.985 290.304,271.015 290.304 C 270.660 290.304,270.260 290.127,270.127 289.912 C 269.990 289.690,268.042 289.520,265.622 289.520 C 263.202 289.520,261.254 289.690,261.117 289.912 M284.605 290.019 C 283.013 290.817,282.860 291.927,282.860 302.704 C 282.860 313.698,282.982 314.501,284.767 315.291 C 288.152 316.790,288.737 314.927,288.737 302.644 C 288.737 291.718,288.601 290.824,286.823 289.985 C 285.717 289.463,285.712 289.463,284.605 290.019 M148.006 295.983 C 148.272 296.207,148.573 307.908,148.337 308.850 C 148.040 310.033,141.342 310.534,140.954 309.403 C 140.656 308.533,140.871 296.376,141.193 295.854 C 141.459 295.424,147.476 295.537,148.006 295.983 M174.503 295.634 C 175.036 295.839,175.122 296.853,175.122 302.897 L 175.122 309.922 171.499 309.809 L 167.875 309.696 167.767 302.869 C 167.685 297.670,167.779 295.967,168.159 295.726 C 168.742 295.356,173.595 295.286,174.503 295.634 M228.294 295.713 C 228.863 296.074,229.381 308.614,228.860 309.419 C 228.624 309.785,227.568 309.893,225.040 309.811 L 221.548 309.696 221.440 302.869 C 221.358 297.670,221.452 295.967,221.832 295.726 C 222.470 295.321,227.661 295.310,228.294 295.713 M269.059 302.742 L 268.952 309.696 265.426 309.696 L 261.900 309.696 261.793 302.742 L 261.686 295.788 265.426 295.788 L 269.166 295.788 269.059 302.742 M43.095 320.249 C 31.617 323.454,26.476 338.150,33.973 346.323 C 34.465 346.860,34.868 347.424,34.868 347.577 C 34.868 347.935,39.463 351.143,40.744 351.679 C 52.498 356.592,65.876 345.766,63.303 333.424 C 61.308 323.855,51.974 317.770,43.095 320.249 M343.976 323.562 C 340.214 324.812,336.252 327.822,335.116 330.293 C 332.311 336.393,332.704 339.225,336.360 339.263 C 338.081 339.281,338.765 338.600,339.660 335.982 C 342.608 327.353,353.524 327.154,356.129 335.682 C 357.083 338.808,358.025 339.667,360.494 339.667 C 366.473 339.667,368.644 348.692,363.486 352.107 L 361.862 353.183 352.821 353.287 C 343.313 353.396,342.423 353.549,341.669 355.203 C 341.032 356.602,341.122 357.103,342.248 358.442 L 343.263 359.647 352.538 359.647 C 362.733 359.647,364.322 359.369,367.417 357.045 C 375.564 350.926,374.371 338.592,365.237 334.522 C 364.210 334.064,363.105 333.563,362.782 333.409 C 362.458 333.255,361.753 332.309,361.214 331.306 C 357.961 325.250,349.854 321.608,343.976 323.562 M50.251 326.572 C 57.583 329.070,59.663 338.676,53.984 343.807 C 48.520 348.743,39.764 346.580,37.425 339.717 C 34.680 331.659,42.290 323.859,50.251 326.572 M197.595 340.239 C 196.286 341.156,195.699 342.969,196.267 344.341 C 197.299 346.832,195.836 346.742,233.636 346.627 L 267.910 346.523 268.921 345.573 C 270.340 344.240,270.328 341.956,268.895 340.628 L 267.858 339.667 233.135 339.667 C 203.325 339.667,198.296 339.748,197.595 340.239 M278.300 340.239 C 274.261 343.068,277.161 346.719,283.448 346.719 C 289.647 346.719,292.179 343.921,289.031 340.548 C 287.995 339.438,279.781 339.201,278.300 340.239 M324.308 341.528 C 319.486 347.104,328.387 362.482,333.486 357.383 C 335.085 355.785,333.590 351.488,331.414 351.426 C 330.533 351.402,329.481 348.155,329.481 345.461 C 329.481 341.391,326.432 339.073,324.308 341.528 M179.402 364.319 C 177.990 365.730,177.719 370.128,178.951 371.649 C 181.517 374.817,184.917 372.890,184.917 368.266 C 184.917 363.931,181.929 361.792,179.402 364.319 M169.085 374.565 C 166.809 377.269,168.862 380.020,173.157 380.020 C 176.465 380.020,177.865 378.956,177.865 376.443 C 177.865 373.292,171.332 371.894,169.085 374.565 M185.931 374.565 C 183.690 377.229,185.610 380.020,189.685 380.020 C 193.124 380.020,194.675 378.976,194.699 376.645 C 194.732 373.340,188.255 371.803,185.931 374.565 M179.402 381.165 C 177.585 382.981,177.814 387.795,179.790 389.312 C 181.751 390.818,184.353 389.221,184.758 386.262 C 185.424 381.406,182.215 378.352,179.402 381.165 " stroke="none" fill="#7a8faf" fill-rule="evenodd"/></g></svg>