<svg xmlns="http://www.w3.org/2000/svg" xmlns:xlink="http://www.w3.org/1999/xlink" id="svg" version="1.1" width="400" height="401.7167381974249" viewBox="0, 0, 400,401.7167381974249"><g id="svgg"><path id="path0" d="M180.810 23.128 L 179.600 24.338 179.600 29.150 C 179.600 35.410,180.571 37.346,183.362 36.645 C 185.573 36.090,186.751 24.948,184.800 23.039 C 183.531 21.799,182.108 21.830,180.810 23.128 M262.765 26.513 C 261.569 27.431,261.123 28.708,261.651 29.700 C 263.432 33.044,272.400 32.246,272.400 28.744 C 272.400 26.345,265.166 24.669,262.765 26.513 M283.978 26.738 C 281.042 29.115,283.412 31.600,288.615 31.600 C 293.545 31.600,295.896 28.831,292.899 26.556 C 291.745 25.680,285.117 25.815,283.978 26.738 M305.578 26.738 C 302.687 29.078,305.013 31.600,310.062 31.600 C 315.040 31.600,316.919 29.785,314.771 27.054 C 313.680 25.666,307.177 25.443,305.578 26.738 M326.982 26.982 C 324.437 29.527,326.510 31.600,331.600 31.600 C 335.546 31.600,337.200 30.773,337.200 28.800 C 337.200 25.996,329.362 24.602,326.982 26.982 M348.582 26.982 C 346.037 29.527,348.110 31.600,353.200 31.600 C 358.306 31.600,360.254 29.685,357.819 27.058 C 356.374 25.499,350.117 25.447,348.582 26.982 M367.569 29.569 C 364.993 32.145,366.273 39.629,369.282 39.587 C 372.957 39.536,373.832 30.775,370.342 28.970 C 368.895 28.222,368.923 28.215,367.569 29.569 M165.094 38.398 C 163.777 39.434,163.595 41.510,164.731 42.538 C 167.065 44.650,177.200 43.098,177.200 40.629 C 177.200 37.758,168.050 36.072,165.094 38.398 M188.200 38.062 C 186.271 39.117,185.865 40.875,187.216 42.325 C 188.345 43.537,199.451 43.684,200.491 42.500 C 201.744 41.073,201.735 40.074,200.459 38.797 L 199.262 37.600 194.131 37.612 C 191.195 37.619,188.658 37.812,188.200 38.062 M180.429 46.654 C 178.478 49.134,179.429 57.908,181.743 58.781 C 184.350 59.764,185.600 57.593,185.600 52.080 C 185.600 46.918,184.990 45.600,182.600 45.600 C 181.627 45.600,181.030 45.890,180.429 46.654 M367.382 50.982 C 366.013 52.351,365.913 58.073,367.229 59.746 C 369.527 62.667,372.396 60.296,372.399 55.474 C 372.401 50.660,369.923 48.441,367.382 50.982 M73.400 52.257 C 66.894 53.290,59.115 58.838,55.545 64.991 L 54.158 67.382 50.779 67.859 C 39.845 69.403,32.407 75.994,28.815 87.322 C 25.377 98.164,32.930 112.090,44.609 116.442 C 49.935 118.427,49.431 118.401,81.906 118.386 C 116.764 118.370,116.100 118.426,122.310 114.953 C 137.731 106.329,139.314 84.026,125.288 72.993 C 119.611 68.528,111.815 66.361,105.600 67.522 C 103.405 67.932,102.000 67.457,102.000 66.306 C 102.000 63.997,94.744 56.858,90.000 54.498 C 86.169 52.593,78.124 51.506,73.400 52.257 M296.843 62.007 C 292.458 62.933,287.678 66.176,285.091 69.979 C 283.542 72.257,283.458 72.310,280.909 72.629 C 266.933 74.375,260.871 92.654,270.871 102.899 C 276.134 108.291,278.905 108.800,303.000 108.800 C 326.463 108.800,328.769 108.427,333.914 103.801 C 346.482 92.502,337.582 71.237,320.632 72.064 L 317.836 72.200 316.896 70.800 C 312.345 64.027,304.198 60.454,296.843 62.007 M368.200 71.683 C 364.964 73.539,365.938 82.400,369.379 82.400 C 371.587 82.400,372.572 80.246,372.329 75.946 C 372.115 72.158,370.421 70.409,368.200 71.683 M230.683 118.651 C 230.545 118.789,229.750 119.041,228.916 119.212 C 228.082 119.383,226.320 119.819,225.000 120.182 C 218.123 122.072,211.058 123.955,209.200 124.394 C 208.430 124.576,206.000 125.211,203.800 125.806 C 201.600 126.401,199.378 126.982,198.863 127.098 C 195.959 127.748,200.790 127.988,216.876 127.994 C 236.543 128.001,235.457 128.176,234.622 125.133 C 234.300 123.960,233.921 122.550,233.780 122.000 C 232.971 118.845,232.731 118.400,231.836 118.400 C 231.339 118.400,230.820 118.513,230.683 118.651 M360.894 128.007 C 359.204 128.700,358.928 130.876,360.323 132.500 C 361.188 133.507,387.282 133.578,388.711 132.577 C 389.764 131.840,389.896 129.825,388.970 128.600 C 388.300 127.712,362.917 127.176,360.894 128.007 M138.268 130.665 C 138.121 130.813,138.000 163.213,138.000 202.667 L 138.000 274.400 145.100 274.412 C 196.944 274.499,238.595 274.366,238.575 274.115 C 238.562 273.942,237.820 272.270,236.927 270.400 C 231.658 259.366,234.417 246.725,243.741 239.180 C 246.125 237.251,251.378 234.400,252.548 234.400 C 253.618 234.400,253.623 234.129,253.510 181.600 L 253.400 130.600 195.968 130.499 C 164.380 130.443,138.415 130.518,138.268 130.665 M39.854 137.229 C 38.398 138.374,38.194 148.994,39.600 150.400 C 40.681 151.481,42.229 151.407,43.418 150.218 C 44.553 149.083,44.927 139.320,43.887 137.965 C 42.652 136.356,41.282 136.106,39.854 137.229 M346.436 139.636 C 343.848 140.671,343.761 143.396,346.274 144.735 C 348.086 145.700,387.285 145.363,388.546 144.371 C 390.141 143.116,390.025 141.047,388.300 139.996 C 386.845 139.109,348.577 138.780,346.436 139.636 M131.000 145.076 C 129.900 145.394,127.565 146.016,125.811 146.460 C 124.057 146.904,122.326 147.425,121.965 147.619 C 121.214 148.021,120.952 146.771,124.597 160.200 C 126.509 167.243,126.935 168.818,127.438 170.700 C 127.747 171.855,128.284 173.835,128.631 175.100 C 128.979 176.365,129.595 178.660,130.000 180.200 C 130.405 181.740,131.027 184.080,131.381 185.400 C 131.736 186.720,132.484 189.510,133.045 191.600 C 133.605 193.690,134.229 195.713,134.432 196.095 C 134.634 196.477,134.800 197.152,134.800 197.595 C 134.800 198.038,134.980 198.400,135.200 198.400 C 135.463 198.400,135.600 189.133,135.600 171.400 L 135.600 144.400 134.300 144.450 C 133.585 144.477,132.100 144.759,131.000 145.076 M227.824 150.577 C 228.445 151.038,228.512 151.297,228.156 151.877 C 227.735 152.563,226.102 152.605,196.000 152.702 C 161.780 152.813,161.652 152.805,163.829 150.629 C 164.741 149.716,226.597 149.666,227.824 150.577 M24.407 152.514 C 23.094 153.179,22.511 154.848,23.124 156.192 C 24.668 159.581,36.000 158.477,36.000 154.938 C 36.000 152.304,28.091 150.650,24.407 152.514 M46.572 152.922 C 43.217 155.808,45.905 158.000,52.800 158.000 C 58.652 158.000,60.100 157.405,60.100 155.000 C 60.100 152.595,58.652 152.000,52.800 152.000 C 47.993 152.000,47.572 152.062,46.572 152.922 M235.872 158.245 C 236.940 158.531,237.372 159.510,236.758 160.251 C 236.128 161.010,155.638 161.078,154.880 160.320 C 154.247 159.687,154.274 159.383,155.029 158.629 C 155.666 157.991,233.547 157.621,235.872 158.245 M39.616 160.875 C 38.443 162.134,38.375 171.492,39.531 172.538 C 42.375 175.111,44.400 172.665,44.400 166.656 C 44.400 160.574,42.281 158.014,39.616 160.875 M236.956 166.111 C 237.853 167.550,236.795 167.588,195.749 167.594 C 152.571 167.600,153.280 167.632,154.802 165.798 C 155.637 164.791,236.325 165.099,236.956 166.111 M228.257 196.205 C 228.957 198.030,229.495 198.000,195.800 198.000 C 162.105 198.000,162.643 198.030,163.343 196.205 C 163.696 195.286,227.904 195.286,228.257 196.205 M236.945 204.200 C 237.666 206.081,239.507 206.000,195.800 206.000 C 152.093 206.000,153.934 206.081,154.655 204.200 C 155.005 203.289,236.595 203.289,236.945 204.200 M256.002 219.700 C 256.001 230.213,256.111 233.209,256.500 233.241 C 257.673 233.338,263.414 233.112,263.567 232.963 C 263.659 232.873,263.421 231.585,263.040 230.100 C 262.306 227.243,262.199 226.843,260.817 221.800 C 258.958 215.016,258.716 214.117,258.013 211.400 C 256.173 204.282,256.005 204.975,256.002 219.700 M236.945 211.000 C 237.666 212.881,239.507 212.800,195.800 212.800 C 151.900 212.800,153.255 212.861,154.842 210.949 C 155.560 210.084,236.612 210.134,236.945 211.000 M361.095 218.669 C 358.136 219.472,358.443 232.293,361.438 233.045 C 363.881 233.659,364.789 232.344,365.092 227.755 C 365.562 220.633,364.313 217.795,361.095 218.669 M345.410 234.277 C 343.619 234.768,342.944 237.683,344.331 238.938 C 346.795 241.168,356.800 239.445,356.800 236.790 C 356.800 234.553,349.931 233.038,345.410 234.277 M367.607 234.498 C 366.071 235.300,365.661 236.955,366.665 238.301 L 367.485 239.400 373.505 239.510 L 379.526 239.620 380.363 238.556 C 381.436 237.192,381.416 236.696,380.236 235.322 C 379.102 234.003,369.726 233.391,367.607 234.498 M253.000 236.950 C 227.852 246.087,233.764 282.400,260.400 282.400 C 281.025 282.400,291.735 257.556,277.358 243.062 C 271.033 236.686,260.795 234.117,253.000 236.950 M187.935 241.555 C 188.158 243.132,187.595 243.188,171.329 243.194 C 155.570 243.200,154.400 243.104,154.400 241.800 C 154.400 240.473,155.505 240.390,171.733 240.495 L 187.800 240.600 187.935 241.555 M359.998 243.094 C 359.209 244.097,359.148 244.574,359.269 248.853 C 359.418 254.168,359.895 255.200,362.200 255.200 C 364.576 255.200,365.000 254.200,365.000 248.600 C 365.000 244.327,364.900 243.574,364.238 242.842 C 363.110 241.595,361.082 241.716,359.998 243.094 M262.069 245.893 C 269.030 251.611,273.582 256.086,273.187 256.825 C 272.589 257.941,271.599 257.777,269.996 256.297 C 265.333 251.991,262.365 249.575,262.008 249.795 C 261.744 249.958,261.600 254.559,261.600 262.797 C 261.600 275.176,261.577 275.553,260.804 275.799 C 259.248 276.293,259.200 275.900,259.200 262.576 C 259.200 252.458,259.090 249.602,258.700 249.607 C 258.425 249.611,256.169 251.423,253.686 253.633 C 250.376 256.581,248.936 257.618,248.286 257.526 C 246.551 257.279,247.324 255.935,251.200 252.457 C 253.290 250.582,256.062 248.092,257.360 246.924 C 260.084 244.472,260.285 244.428,262.069 245.893 M221.400 250.000 L 221.400 251.000 188.351 251.102 C 153.362 251.211,153.950 251.239,154.637 249.448 C 154.866 248.851,157.694 248.804,188.144 248.898 L 221.400 249.000 221.400 250.000 M39.670 254.926 C 38.583 256.083,38.553 257.753,39.600 258.800 C 40.368 259.568,40.933 259.600,53.756 259.600 C 68.830 259.600,68.967 259.574,68.887 256.769 C 68.808 254.012,68.744 254.000,53.825 254.000 L 40.539 254.000 39.670 254.926 M221.400 256.800 L 221.400 257.800 188.351 257.902 C 153.362 258.011,153.950 258.039,154.637 256.248 C 154.866 255.651,157.694 255.604,188.144 255.698 L 221.400 255.800 221.400 256.800 M24.662 266.731 C 23.630 267.872,23.817 269.798,25.054 270.771 C 26.706 272.071,66.094 272.071,67.746 270.771 C 69.024 269.766,69.188 267.675,68.069 266.662 C 66.884 265.590,25.635 265.656,24.662 266.731 M156.555 278.100 C 159.187 287.905,158.382 287.099,164.025 285.579 C 173.073 283.142,174.621 282.732,176.000 282.408 C 176.770 282.228,179.830 281.421,182.800 280.616 C 185.770 279.811,189.415 278.853,190.900 278.486 C 192.385 278.120,193.600 277.681,193.600 277.510 C 193.600 277.340,185.210 277.200,174.957 277.200 L 156.313 277.200 156.555 278.100 M16.640 301.240 C 15.003 302.528,15.192 309.662,16.897 310.934 C 18.284 311.968,20.605 311.115,21.032 309.415 C 22.447 303.776,19.765 298.782,16.640 301.240 M324.029 322.654 C 322.999 323.964,322.982 324.842,323.965 326.056 L 324.729 327.000 338.323 327.000 C 353.340 327.000,353.600 326.956,353.600 324.413 C 353.600 321.623,353.476 321.600,338.413 321.600 L 324.858 321.600 324.029 322.654 M16.489 322.623 C 15.116 323.585,15.144 330.632,16.526 331.930 C 19.083 334.332,21.200 332.280,21.200 327.400 C 21.200 322.614,19.281 320.667,16.489 322.623 M291.054 334.029 C 289.806 335.011,289.657 336.688,290.703 337.979 L 291.406 338.848 319.203 338.839 C 334.491 338.834,348.125 338.823,349.500 338.815 C 353.386 338.792,355.126 336.058,352.546 334.029 C 350.886 332.724,292.714 332.724,291.054 334.029 M16.455 344.142 C 15.646 345.003,15.580 345.422,15.685 349.021 L 15.800 352.957 17.056 353.690 C 19.728 355.248,21.200 353.355,21.200 348.363 C 21.200 343.757,18.812 341.633,16.455 344.142 M220.928 346.475 C 217.620 348.075,218.734 360.800,222.183 360.800 C 224.450 360.800,224.800 359.821,224.800 353.482 C 224.800 346.542,223.955 345.012,220.928 346.475 M30.089 351.823 C 28.945 352.624,28.852 355.161,29.931 356.138 C 32.185 358.177,40.000 356.617,40.000 354.128 C 40.000 351.435,32.975 349.801,30.089 351.823 M51.578 351.938 C 50.453 352.848,50.363 354.854,51.395 355.995 C 53.471 358.288,61.600 356.699,61.600 354.000 C 61.600 351.338,54.199 349.815,51.578 351.938 M72.982 352.182 C 70.374 354.789,72.385 356.800,77.600 356.800 C 81.382 356.800,81.576 356.757,82.371 355.746 C 84.531 353.000,82.643 351.200,77.600 351.200 C 74.273 351.200,73.880 351.283,72.982 352.182 M94.582 352.182 C 91.983 354.781,93.978 356.800,99.144 356.800 C 104.309 356.800,106.266 354.899,103.819 352.258 C 102.374 350.699,96.117 350.647,94.582 352.182 M116.254 352.029 C 113.281 354.368,115.570 356.800,120.744 356.800 C 125.993 356.800,128.123 354.425,125.139 351.900 C 123.847 350.807,117.694 350.896,116.254 352.029 M205.600 361.884 C 203.608 362.616,202.893 365.237,204.331 366.538 C 205.531 367.624,214.725 367.502,215.925 366.384 C 217.362 365.046,217.020 363.141,215.171 362.185 C 214.048 361.604,206.966 361.381,205.600 361.884 M228.036 362.020 C 225.926 362.899,225.409 364.905,226.926 366.330 C 229.464 368.714,241.200 367.266,241.200 364.568 C 241.200 362.168,231.973 360.382,228.036 362.020 M220.344 370.364 C 218.927 371.510,218.667 380.015,219.998 381.706 C 221.034 383.023,223.110 383.205,224.138 382.069 C 225.263 380.825,225.102 371.356,223.939 370.347 C 222.836 369.391,221.540 369.397,220.344 370.364 " stroke="none" fill="#0767A7" fill-rule="evenodd"/><path id="path1" d="M0.000 200.800 L 0.000 401.600 200.000 401.600 L 400.000 401.600 400.000 200.800 L 400.000 0.000 200.000 0.000 L 0.000 0.000 0.000 200.800 M184.800 23.039 C 186.751 24.948,185.573 36.090,183.362 36.645 C 180.571 37.346,179.600 35.410,179.600 29.150 L 179.600 24.338 180.810 23.128 C 182.108 21.830,183.531 21.799,184.800 23.039 M271.474 26.870 C 274.108 29.344,271.979 31.605,267.030 31.587 C 263.251 31.574,262.511 31.315,261.651 29.700 C 261.123 28.708,261.569 27.431,262.765 26.513 C 263.967 25.590,270.392 25.853,271.474 26.870 M292.899 26.556 C 295.896 28.831,293.545 31.600,288.615 31.600 C 284.221 31.600,283.067 31.017,283.067 28.800 C 283.067 26.588,284.227 25.998,288.544 26.013 C 290.945 26.021,292.440 26.208,292.899 26.556 M314.771 27.054 C 316.919 29.785,315.040 31.600,310.062 31.600 C 305.833 31.600,304.667 30.995,304.667 28.800 C 304.667 25.859,312.734 24.465,314.771 27.054 M336.218 26.982 C 338.763 29.527,336.690 31.600,331.600 31.600 C 327.654 31.600,326.000 30.773,326.000 28.800 C 326.000 25.996,333.838 24.602,336.218 26.982 M357.819 27.058 C 360.254 29.685,358.306 31.600,353.200 31.600 C 349.254 31.600,347.600 30.773,347.600 28.800 C 347.600 25.940,355.530 24.589,357.819 27.058 M370.342 28.970 C 373.832 30.775,372.957 39.536,369.282 39.587 C 366.273 39.629,364.993 32.145,367.569 29.569 C 368.923 28.215,368.895 28.222,370.342 28.970 M176.436 38.744 C 177.445 39.992,177.403 41.380,176.325 42.384 C 175.125 43.502,165.931 43.624,164.731 42.538 C 163.595 41.510,163.777 39.434,165.094 38.398 C 166.785 37.067,175.290 37.327,176.436 38.744 M200.459 38.797 C 201.735 40.074,201.744 41.073,200.491 42.500 C 198.496 44.771,186.400 43.141,186.400 40.601 C 186.400 38.275,188.078 37.627,194.131 37.612 L 199.262 37.600 200.459 38.797 M184.771 46.654 C 186.615 48.999,185.846 57.445,183.688 58.548 C 180.881 59.982,179.600 57.981,179.600 52.165 C 179.600 46.910,180.199 45.600,182.600 45.600 C 183.573 45.600,184.170 45.890,184.771 46.654 M370.835 50.513 C 373.778 52.773,372.686 60.800,369.435 60.800 C 367.164 60.800,366.400 59.422,366.400 55.328 C 366.400 50.861,368.425 48.662,370.835 50.513 M86.600 53.170 C 93.089 55.416,102.000 63.017,102.000 66.306 C 102.000 67.457,103.405 67.932,105.600 67.522 C 111.815 66.361,119.611 68.528,125.288 72.993 C 139.314 84.026,137.731 106.329,122.310 114.953 C 116.100 118.426,116.764 118.370,81.906 118.386 C 49.431 118.401,49.935 118.427,44.609 116.442 C 32.930 112.090,25.377 98.164,28.815 87.322 C 32.407 75.994,39.845 69.403,50.779 67.859 L 54.158 67.382 55.545 64.991 C 59.115 58.838,66.894 53.290,73.400 52.257 C 76.310 51.794,84.205 52.340,86.600 53.170 M307.039 62.842 C 310.903 64.276,314.420 67.115,316.896 70.800 L 317.836 72.200 320.632 72.064 C 337.582 71.237,346.482 92.502,333.914 103.801 C 328.769 108.427,326.463 108.800,303.000 108.800 C 278.905 108.800,276.134 108.291,270.871 102.899 C 260.871 92.654,266.933 74.375,280.909 72.629 C 283.458 72.310,283.542 72.257,285.091 69.979 C 289.897 62.913,299.135 59.909,307.039 62.842 M371.062 72.152 C 373.790 74.498,372.492 82.400,369.379 82.400 C 365.938 82.400,364.964 73.539,368.200 71.683 C 369.365 71.015,369.828 71.091,371.062 72.152 M233.131 119.700 C 233.347 120.415,233.639 121.450,233.780 122.000 C 233.921 122.550,234.300 123.960,234.622 125.133 C 235.457 128.176,236.543 128.001,216.876 127.994 C 200.790 127.988,195.959 127.748,198.863 127.098 C 199.378 126.982,201.600 126.401,203.800 125.806 C 206.000 125.211,208.430 124.576,209.200 124.394 C 211.058 123.955,218.123 122.072,225.000 120.182 C 226.320 119.819,228.082 119.383,228.916 119.212 C 229.750 119.041,230.545 118.789,230.683 118.651 C 231.438 117.895,232.756 118.460,233.131 119.700 M388.970 128.600 C 389.896 129.825,389.764 131.840,388.711 132.577 C 387.282 133.578,361.188 133.507,360.323 132.500 C 358.928 130.876,359.204 128.700,360.894 128.007 C 362.917 127.176,388.300 127.712,388.970 128.600 M253.510 181.600 C 253.623 234.129,253.618 234.400,252.548 234.400 C 251.378 234.400,246.125 237.251,243.741 239.180 C 234.417 246.725,231.658 259.366,236.927 270.400 C 237.820 272.270,238.562 273.942,238.575 274.115 C 238.595 274.366,196.944 274.499,145.100 274.412 L 138.000 274.400 138.000 202.667 C 138.000 163.213,138.121 130.813,138.268 130.665 C 138.415 130.518,164.380 130.443,195.968 130.499 L 253.400 130.600 253.510 181.600 M42.526 136.865 C 44.212 137.763,44.374 138.378,44.387 143.918 C 44.403 150.618,42.455 153.255,39.600 150.400 C 38.194 148.994,38.398 138.374,39.854 137.229 C 41.073 136.270,41.340 136.234,42.526 136.865 M388.300 139.996 C 390.025 141.047,390.141 143.116,388.546 144.371 C 387.285 145.363,348.086 145.700,346.274 144.735 C 343.761 143.396,343.848 140.671,346.436 139.636 C 348.577 138.780,386.845 139.109,388.300 139.996 M135.600 171.400 C 135.600 189.133,135.463 198.400,135.200 198.400 C 134.980 198.400,134.800 198.038,134.800 197.595 C 134.800 197.152,134.634 196.477,134.432 196.095 C 134.229 195.713,133.605 193.690,133.045 191.600 C 132.484 189.510,131.736 186.720,131.381 185.400 C 131.027 184.080,130.405 181.740,130.000 180.200 C 129.595 178.660,128.979 176.365,128.631 175.100 C 128.284 173.835,127.747 171.855,127.438 170.700 C 126.935 168.818,126.509 167.243,124.597 160.200 C 120.952 146.771,121.214 148.021,121.965 147.619 C 122.326 147.425,124.057 146.904,125.811 146.460 C 127.565 146.016,129.900 145.394,131.000 145.076 C 132.100 144.759,133.585 144.477,134.300 144.450 L 135.600 144.400 135.600 171.400 M163.829 150.629 C 161.652 152.805,161.780 152.813,196.000 152.702 C 226.102 152.605,227.735 152.563,228.156 151.877 C 229.306 150.002,229.273 150.000,195.752 150.000 C 167.835 150.000,164.389 150.068,163.829 150.629 M35.018 152.982 C 37.778 155.741,35.786 157.760,30.136 157.931 C 24.071 158.113,22.012 157.001,23.035 154.092 C 23.864 151.737,32.932 150.896,35.018 152.982 M59.028 152.922 C 62.383 155.808,59.695 158.000,52.800 158.000 C 46.948 158.000,45.500 157.405,45.500 155.000 C 45.500 152.595,46.948 152.000,52.800 152.000 C 57.607 152.000,58.028 152.062,59.028 152.922 M155.029 158.629 C 154.274 159.383,154.247 159.687,154.880 160.320 C 155.638 161.078,236.128 161.010,236.758 160.251 C 237.372 159.510,236.940 158.531,235.872 158.245 C 233.547 157.621,155.666 157.991,155.029 158.629 M43.418 160.982 C 46.030 163.593,44.491 173.200,41.462 173.200 C 39.111 173.200,38.800 172.454,38.800 166.813 C 38.800 160.241,40.513 158.077,43.418 160.982 M154.802 165.798 C 153.280 167.632,152.571 167.600,195.749 167.594 C 236.795 167.588,237.853 167.550,236.956 166.111 C 236.325 165.099,155.637 164.791,154.802 165.798 M163.343 196.205 C 162.643 198.030,162.105 198.000,195.800 198.000 C 229.495 198.000,228.957 198.030,228.257 196.205 C 227.904 195.286,163.696 195.286,163.343 196.205 M154.655 204.200 C 153.934 206.081,152.093 206.000,195.800 206.000 C 239.507 206.000,237.666 206.081,236.945 204.200 C 236.595 203.289,155.005 203.289,154.655 204.200 M258.013 211.400 C 258.716 214.117,258.958 215.016,260.817 221.800 C 262.199 226.843,262.306 227.243,263.040 230.100 C 263.421 231.585,263.659 232.873,263.567 232.963 C 263.414 233.112,257.673 233.338,256.500 233.241 C 256.111 233.209,256.001 230.213,256.002 219.700 C 256.005 204.975,256.173 204.282,258.013 211.400 M154.842 210.949 C 153.255 212.861,151.900 212.800,195.800 212.800 C 239.507 212.800,237.666 212.881,236.945 211.000 C 236.612 210.134,155.560 210.084,154.842 210.949 M364.253 219.527 C 365.248 220.862,365.507 229.445,364.618 231.644 C 363.840 233.569,360.809 233.551,359.807 231.614 C 358.961 229.978,358.952 221.639,359.795 220.011 C 360.683 218.292,363.134 218.026,364.253 219.527 M356.036 235.144 C 358.401 238.068,356.360 239.600,350.102 239.600 C 343.928 239.600,341.889 238.081,344.123 235.147 C 345.301 233.599,354.784 233.597,356.036 235.144 M380.236 235.322 C 381.416 236.696,381.436 237.192,380.363 238.556 L 379.526 239.620 373.505 239.510 L 367.485 239.400 366.665 238.301 C 365.661 236.955,366.071 235.300,367.607 234.498 C 369.726 233.391,379.102 234.003,380.236 235.322 M267.596 236.972 C 284.528 242.700,289.473 262.906,277.000 275.397 C 261.887 290.533,236.873 280.145,237.035 258.800 C 237.154 243.067,252.730 231.942,267.596 236.972 M155.033 241.024 C 154.256 241.801,154.256 241.799,155.029 242.571 C 155.732 243.275,186.450 243.537,187.535 242.849 C 187.829 242.662,188.009 242.080,187.935 241.555 L 187.800 240.600 171.733 240.495 C 157.521 240.403,155.593 240.464,155.033 241.024 M364.238 242.842 C 364.900 243.574,365.000 244.327,365.000 248.600 C 365.000 254.200,364.576 255.200,362.200 255.200 C 359.895 255.200,359.418 254.168,359.269 248.853 C 359.148 244.574,359.209 244.097,359.998 243.094 C 361.082 241.716,363.110 241.595,364.238 242.842 M257.360 246.924 C 256.062 248.092,253.290 250.582,251.200 252.457 C 247.324 255.935,246.551 257.279,248.286 257.526 C 248.936 257.618,250.376 256.581,253.686 253.633 C 256.169 251.423,258.425 249.611,258.700 249.607 C 259.090 249.602,259.200 252.458,259.200 262.576 C 259.200 275.900,259.248 276.293,260.804 275.799 C 261.577 275.553,261.600 275.176,261.600 262.797 C 261.600 254.559,261.744 249.958,262.008 249.795 C 262.365 249.575,265.333 251.991,269.996 256.297 C 271.599 257.777,272.589 257.941,273.187 256.825 C 273.582 256.086,269.030 251.611,262.069 245.893 C 260.285 244.428,260.084 244.472,257.360 246.924 M154.637 249.448 C 153.950 251.239,153.362 251.211,188.351 251.102 L 221.400 251.000 221.400 250.000 L 221.400 249.000 188.144 248.898 C 157.694 248.804,154.866 248.851,154.637 249.448 M67.980 254.703 C 69.199 255.690,69.219 257.893,68.018 258.866 C 66.557 260.049,40.790 259.990,39.600 258.800 C 38.553 257.753,38.583 256.083,39.670 254.926 L 40.539 254.000 53.825 254.000 C 65.905 254.000,67.190 254.064,67.980 254.703 M154.637 256.248 C 153.950 258.039,153.362 258.011,188.351 257.902 L 221.400 257.800 221.400 256.800 L 221.400 255.800 188.144 255.698 C 157.694 255.604,154.866 255.651,154.637 256.248 M68.069 266.662 C 69.188 267.675,69.024 269.766,67.746 270.771 C 66.094 272.071,26.706 272.071,25.054 270.771 C 23.817 269.798,23.630 267.872,24.662 266.731 C 25.635 265.656,66.884 265.590,68.069 266.662 M193.600 277.510 C 193.600 277.681,192.385 278.120,190.900 278.486 C 189.415 278.853,185.770 279.811,182.800 280.616 C 179.830 281.421,176.770 282.228,176.000 282.408 C 174.621 282.732,173.073 283.142,164.025 285.579 C 158.382 287.099,159.187 287.905,156.555 278.100 L 156.313 277.200 174.957 277.200 C 185.210 277.200,193.600 277.340,193.600 277.510 M19.996 301.183 C 22.104 302.803,21.661 310.002,19.386 311.087 C 16.769 312.335,15.827 311.065,15.686 306.098 C 15.540 300.910,17.190 299.027,19.996 301.183 M352.784 322.475 C 353.837 323.606,353.826 325.272,352.758 326.238 C 351.965 326.956,351.129 327.000,338.323 327.000 L 324.729 327.000 323.965 326.056 C 322.982 324.842,322.999 323.964,324.029 322.654 L 324.858 321.600 338.413 321.600 C 351.843 321.600,351.976 321.608,352.784 322.475 M20.371 323.054 C 22.473 325.726,21.112 332.800,18.497 332.800 C 15.649 332.800,13.987 324.375,16.489 322.623 C 17.853 321.667,19.417 321.841,20.371 323.054 M352.546 334.029 C 355.126 336.058,353.386 338.792,349.500 338.815 C 348.125 338.823,334.491 338.834,319.203 338.839 L 291.406 338.848 290.703 337.979 C 289.657 336.688,289.806 335.011,291.054 334.029 C 292.714 332.724,350.886 332.724,352.546 334.029 M20.218 344.182 C 23.332 347.296,20.532 355.717,17.056 353.690 L 15.800 352.957 15.685 349.021 C 15.527 343.613,17.521 341.484,20.218 344.182 M223.746 346.829 C 226.379 348.900,225.047 360.800,222.183 360.800 C 218.734 360.800,217.620 348.075,220.928 346.475 C 222.199 345.861,222.576 345.908,223.746 346.829 M39.171 352.254 C 41.390 355.075,39.604 356.800,34.462 356.800 C 29.995 356.800,29.200 356.371,29.200 353.961 C 29.200 351.687,30.164 351.200,34.660 351.200 C 38.161 351.200,38.383 351.252,39.171 352.254 M60.771 352.254 C 62.981 355.063,61.171 356.800,56.033 356.800 C 51.614 356.800,50.667 356.294,50.667 353.933 C 50.667 351.053,58.768 349.707,60.771 352.254 M82.218 352.182 C 84.826 354.789,82.815 356.800,77.600 356.800 C 73.818 356.800,73.624 356.757,72.829 355.746 C 70.669 353.000,72.557 351.200,77.600 351.200 C 80.927 351.200,81.320 351.283,82.218 352.182 M103.819 352.258 C 106.266 354.899,104.309 356.800,99.144 356.800 C 93.978 356.800,91.983 354.781,94.582 352.182 C 96.117 350.647,102.374 350.699,103.819 352.258 M125.139 351.900 C 128.123 354.425,125.993 356.800,120.744 356.800 C 115.570 356.800,113.281 354.368,116.254 352.029 C 117.694 350.896,123.847 350.807,125.139 351.900 M215.171 362.185 C 217.020 363.141,217.362 365.046,215.925 366.384 C 214.725 367.502,205.531 367.624,204.331 366.538 C 202.893 365.237,203.608 362.616,205.600 361.884 C 206.966 361.381,214.048 361.604,215.171 362.185 M240.236 362.922 C 242.845 365.959,240.949 367.200,233.697 367.200 C 226.593 367.200,224.397 365.944,226.549 363.111 C 228.062 361.119,238.561 360.974,240.236 362.922 M223.939 370.347 C 225.102 371.356,225.263 380.825,224.138 382.069 C 223.110 383.205,221.034 383.023,219.998 381.706 C 218.667 380.015,218.927 371.510,220.344 370.364 C 221.540 369.397,222.836 369.391,223.939 370.347 " stroke="none" fill="#FFF" fill-rule="evenodd"/></g></svg>